<svg version="1.1" id="Layer_1" xmlns="http://www.w3.org/2000/svg" xmlns:xlink="http://www.w3.org/1999/xlink" x="0px" y="0px"
	 width="100%" viewBox="0 0 512 512" enable-background="new 0 0 512 512" xml:space="preserve">
<path fill="#000000" opacity="1.000000" stroke="none" 
	d="
M468.000000,1.000000 
	C482.995087,1.000000 497.990143,1.000000 512.988892,1.000000 
	C512.992615,171.605713 512.992615,342.211426 512.992615,512.908569 
	C342.450348,512.908569 171.900620,512.908569 1.000000,512.908569 
	C1.000000,428.644989 1.000000,344.289459 1.208969,259.713654 
	C2.155271,260.668854 3.047308,261.654236 4.578298,261.581726 
	C9.551372,261.346313 14.049221,262.963470 18.527206,264.892090 
	C22.802645,266.733459 26.757965,265.865509 29.965374,262.511597 
	C35.253006,256.982391 40.467442,251.380844 45.611832,245.718140 
	C47.565151,243.568039 48.338634,240.797348 48.821663,237.967133 
	C50.157074,230.142593 50.116821,222.513168 47.291504,214.856918 
	C45.164806,209.093857 44.211353,202.947174 43.945938,196.740555 
	C43.718044,191.411331 43.179729,186.111221 41.751961,180.938766 
	C39.711452,173.546524 41.401276,167.200729 46.830364,161.700470 
	C52.838436,155.613647 58.087212,148.794586 61.393658,140.943924 
	C64.449860,133.687408 68.289536,126.969986 72.202255,120.197769 
	C77.467201,111.085106 81.066887,101.313889 83.481880,90.966850 
	C88.051689,71.387474 92.815727,51.883038 99.434387,32.789856 
	C104.126671,19.253780 101.719833,9.707424 91.000000,1.000000 
	C210.022018,1.000000 329.044037,1.000000 448.256226,1.126498 
	C447.424164,1.989465 445.770447,1.466184 445.059052,2.915190 
	C450.401398,6.840787 455.662842,10.799088 461.029388,14.609334 
	C463.511322,16.371477 466.452454,16.809742 468.926086,14.899976 
	C471.667480,12.783514 473.922302,10.247042 473.628265,6.171242 
	C473.355896,2.395282 470.653229,1.864871 468.000000,1.000000 
M385.195557,377.623718 
	C390.232300,370.441467 389.659729,362.802032 386.570587,355.227875 
	C380.671417,340.764038 386.599518,331.789429 395.508698,324.398315 
	C398.839050,321.635437 402.523682,319.250946 405.595032,316.234009 
	C413.507904,308.461456 414.876404,299.028503 409.385071,289.382355 
	C406.755066,284.762421 406.576233,280.364746 408.342590,275.541351 
	C410.818451,268.780487 414.555237,262.642334 417.660950,256.194672 
	C423.951233,243.135605 422.313110,235.816010 410.765350,227.294785 
	C403.789520,222.147217 398.979889,215.597244 397.092194,207.070435 
	C396.081116,202.503387 396.602966,198.123108 399.204590,194.118607 
	C407.191193,181.825516 406.602570,173.413269 397.371582,162.073425 
	C387.948578,150.497726 385.635376,137.698593 391.694916,123.787811 
	C396.528290,112.691856 395.641785,107.777939 386.742981,99.398582 
	C382.986481,95.861313 378.859070,92.711861 375.173462,89.106812 
	C370.064972,84.109901 368.137909,78.098366 369.703979,70.888489 
	C372.428528,58.344997 366.103546,49.233936 353.412903,47.371326 
	C344.002930,45.990211 336.584869,41.514183 330.756805,34.093643 
	C328.152283,30.777458 326.392120,27.022331 324.489227,23.319429 
	C319.619263,13.842934 310.552521,8.892517 300.098816,10.946862 
	C289.320740,13.064957 278.890289,12.483484 268.633789,8.869286 
	C259.746155,5.737447 251.107788,5.854546 242.357010,9.430922 
	C235.122971,12.387411 227.674057,12.869005 219.831100,11.562119 
	C202.935989,8.746870 196.892822,12.179470 189.167099,27.523350 
	C187.750992,30.335842 186.040833,33.027958 184.226166,35.606575 
	C179.792801,41.906342 173.625397,45.515621 166.103027,47.025330 
	C154.284149,49.397343 148.121429,55.613670 147.704498,67.732971 
	C147.226883,81.616051 140.139938,91.148842 129.791901,98.978889 
	C119.170570,107.015739 117.946304,110.830681 123.715012,123.116592 
	C130.241592,137.016571 128.400955,150.070496 118.762192,161.356537 
	C110.788216,170.693283 110.687645,180.283798 114.717186,190.658875 
	C120.707634,206.082779 118.063644,216.902573 105.020432,227.135834 
	C99.699310,231.310608 97.589668,236.420959 99.461815,242.932770 
	C100.517082,246.603256 101.827126,250.210205 103.199615,253.777603 
	C105.351273,259.370209 107.663292,264.900116 108.985138,270.774353 
	C110.335617,276.775848 110.455963,282.572174 107.184464,288.163452 
	C100.469055,299.640686 102.493423,310.328461 112.849579,318.662231 
	C116.739990,321.792908 120.926712,324.551300 124.427147,328.165771 
	C131.360519,335.325043 133.168350,343.604614 129.992249,353.014404 
	C129.246964,355.222443 128.349884,357.392731 127.786644,359.646362 
	C125.728745,367.880341 127.573349,375.096497 133.488724,381.300476 
	C135.785095,383.708862 137.713211,383.887787 140.273758,381.615021 
	C147.141266,375.519348 154.524170,370.101837 162.509842,365.527222 
	C163.309937,365.068878 164.379700,364.660919 164.360474,363.013733 
	C162.634445,360.868195 160.117981,359.226990 157.599136,357.657501 
	C150.546844,353.263184 147.554108,346.770966 147.704025,338.694763 
	C147.771851,335.040771 148.175613,331.392731 148.435043,327.742584 
	C149.136063,317.879669 146.806168,309.546356 137.089355,304.805054 
	C134.849731,303.712219 132.690277,302.416077 130.616425,301.030243 
	C125.368599,297.523376 123.107475,292.684937 124.645691,286.412537 
	C125.794434,281.728271 127.286018,277.123566 128.316345,272.415894 
	C129.891663,265.218201 128.755112,262.809082 122.491158,258.840790 
	C121.025581,257.912354 119.498451,256.913635 120.477074,254.903320 
	C121.360664,253.088226 123.038551,253.166824 124.814316,253.540787 
	C129.416641,254.510040 133.298660,258.442291 134.310974,263.406586 
	C135.445908,268.972137 134.223221,274.300995 132.670456,279.612976 
	C128.755585,293.005646 128.644104,293.253845 140.827515,300.001465 
	C150.203384,305.194153 154.071686,313.132996 154.311432,323.349243 
	C154.413086,327.680969 154.126724,331.990814 153.618835,336.311371 
	C153.063034,341.039703 153.554047,345.834076 157.049774,349.413025 
	C161.252731,353.716064 166.295013,357.386475 171.721863,359.573456 
	C175.181915,360.967834 178.978241,357.024292 182.771637,355.867889 
	C187.069656,354.557709 191.323700,353.102264 195.589020,351.686340 
	C197.123260,351.177032 198.902496,351.119873 200.041351,349.318512 
	C198.580948,342.474121 193.210663,339.727631 187.362396,337.342804 
	C175.510178,332.509583 171.759781,326.999664 171.654663,314.637634 
	C171.552963,302.677795 167.248169,296.307373 156.116821,291.729950 
	C154.119095,290.908478 151.310791,290.301392 152.280289,287.543243 
	C153.303055,284.633667 156.090500,285.646271 158.333862,286.321198 
	C169.832001,289.780609 177.308823,299.923767 177.358658,312.091156 
	C177.410645,324.783539 179.229736,327.726746 190.931839,332.360321 
	C197.459000,334.944794 202.365051,339.038422 205.423691,345.357117 
	C206.233566,347.030212 207.170425,348.369385 209.378357,348.677307 
	C222.349075,350.486328 232.938110,341.976746 233.630814,329.025391 
	C233.701981,327.694794 233.614563,326.352478 233.739319,325.028625 
	C234.070374,321.515839 232.467636,319.773804 229.011520,319.370789 
	C222.876648,318.655457 216.910065,317.116425 211.031479,315.273895 
	C191.051834,309.011688 174.556519,298.187195 164.764648,279.007263 
	C160.131638,269.932251 156.907623,260.258026 154.676819,250.329391 
	C153.551468,245.320862 150.661362,243.728973 145.930984,243.338562 
	C140.789291,242.914200 138.558807,246.288452 135.966751,249.582611 
	C134.679520,251.218552 133.502670,253.516830 130.874680,252.894592 
	C128.560760,252.346725 128.017960,250.037445 127.827606,248.140381 
	C127.214867,242.033783 124.052116,238.535538 118.084366,237.205978 
	C116.231857,236.793274 114.037094,236.115952 113.689400,233.678452 
	C113.324173,231.117981 115.515221,230.273819 117.163895,229.318008 
	C121.219109,226.967041 125.043167,224.266327 124.276688,218.989655 
	C123.590034,214.262466 127.743683,210.512726 126.057442,205.592529 
	C124.020920,199.650284 124.014702,193.462708 126.009323,187.410187 
	C127.983757,181.418961 133.629425,176.430695 138.557983,178.221802 
	C145.012894,180.567612 149.482330,178.657059 154.205658,174.966904 
	C155.468338,173.980423 157.197098,173.436157 158.798950,173.074677 
	C161.151260,172.543884 162.556061,171.234711 163.472244,169.065353 
	C165.556366,164.130447 169.691772,161.861115 174.674438,160.872498 
	C183.383118,159.144577 187.012665,155.406128 188.883972,146.565628 
	C190.096985,140.835114 189.467621,134.969849 190.700577,129.213547 
	C194.230591,112.733009 204.815994,106.925514 219.694153,114.632607 
	C229.870392,119.904037 239.410889,122.177811 249.858810,115.925537 
	C252.043427,114.618202 254.923096,114.296616 257.539948,113.919670 
	C266.052155,112.693497 274.126434,116.171684 277.476654,123.127739 
	C281.611542,131.713013 288.709259,135.187180 297.545441,135.580109 
	C307.264923,136.012314 314.293396,140.423904 317.789276,149.262192 
	C323.366608,163.362823 336.324799,167.378876 348.426941,172.343506 
	C352.899719,174.178375 357.655670,175.325134 361.231903,178.670532 
	C364.020966,181.279587 366.361237,181.841583 370.058624,180.168854 
	C377.703339,176.710342 383.759125,179.747116 386.632202,187.697296 
	C388.578308,193.082306 388.205139,198.517746 386.952850,203.920105 
	C386.320312,206.648956 385.931641,209.097900 388.158203,211.338852 
	C389.574249,212.764069 389.486633,214.762894 389.308563,216.559128 
	C388.727539,222.418976 390.955414,226.485870 396.361633,228.999466 
	C398.220001,229.863495 400.579437,230.917892 400.237183,233.641388 
	C399.902283,236.306427 397.363708,236.827286 395.400055,237.357742 
	C389.957184,238.828079 386.888458,242.041260 386.166840,247.727753 
	C385.909637,249.754211 385.468506,252.343521 382.843781,252.801910 
	C380.224670,253.259308 379.313049,250.742813 377.889313,249.207993 
	C375.566437,246.703873 373.923065,243.514206 369.706909,243.351181 
	C360.463104,242.993744 358.664276,244.181488 356.190033,253.293060 
	C355.884613,254.417770 355.533508,255.530518 355.246490,256.659729 
	C348.787964,282.070770 334.775177,301.195953 309.888855,311.335632 
	C302.312836,314.422424 294.561127,316.852844 286.541107,318.504669 
	C284.588928,318.906738 282.006653,318.693909 281.184021,321.377136 
	C279.632904,326.436371 283.758545,339.976685 288.060974,342.871796 
	C296.189789,348.341766 298.382538,356.274933 296.827484,365.173981 
	C295.446503,373.076874 297.584381,379.269714 303.230988,384.552155 
	C306.271667,387.396790 309.418488,390.127625 312.476074,392.954559 
	C318.057526,398.114990 320.122589,404.436310 318.783691,411.936554 
	C317.866730,417.073151 316.345673,422.009949 313.618378,426.442139 
	C309.682526,432.838379 309.342651,438.988098 313.066467,445.736847 
	C317.239227,453.299286 316.073761,460.826538 311.272247,467.878326 
	C308.537598,471.894501 305.095581,475.283844 301.843811,478.856201 
	C296.590912,484.626984 295.613708,492.200134 299.942413,496.495789 
	C305.965027,502.472473 313.752411,504.065918 321.722687,502.285187 
	C328.684082,500.729767 331.194122,494.665253 331.787445,488.228302 
	C332.696014,478.371582 335.935577,469.784241 343.413330,463.058899 
	C345.271393,461.387787 347.200623,459.794067 349.026031,458.088684 
	C359.185150,448.597717 364.432861,437.065613 361.641388,423.155640 
	C359.036560,410.175842 362.020233,399.617371 371.908569,390.692444 
	C376.327179,386.704376 381.445282,383.354950 385.195557,377.623718 
M159.212143,497.112701 
	C205.792969,507.101349 252.758514,510.067566 301.071808,505.695312 
	C289.507812,494.624176 288.818359,483.990540 298.182831,474.181580 
	C300.138062,472.133575 302.186493,470.163727 304.015656,468.008270 
	C309.679962,461.333801 311.805481,454.215698 306.901215,446.042206 
	C302.919006,439.405426 303.581879,432.709808 307.297791,426.124084 
	C309.929871,421.459198 311.913055,416.566620 312.935272,411.248383 
	C314.006866,405.673401 312.603027,401.078400 308.450500,397.275421 
	C305.256165,394.349976 301.689423,391.734741 298.953949,388.430481 
	C295.921661,384.767639 293.110199,384.367249 288.606049,385.803070 
	C255.179840,396.458862 223.540894,391.882782 196.115082,370.265289 
	C185.685989,362.044861 178.772964,362.984314 168.733231,368.698212 
	C127.728729,392.035004 105.583710,428.523468 94.329247,472.953461 
	C93.415581,476.560425 95.024727,478.035065 98.092468,479.197418 
	C117.744385,486.643433 137.854858,492.499939 159.212143,497.112701 
M255.480927,315.645447 
	C263.818665,315.627747 272.116058,314.927429 280.332916,313.616516 
	C296.822632,310.985809 312.232971,305.654480 325.663757,295.294342 
	C341.090485,283.394592 346.422577,266.049774 351.279816,248.448120 
	C352.166931,245.233505 349.794647,244.257858 347.101196,244.633942 
	C339.958679,245.631195 332.786682,245.180664 325.645264,245.032684 
	C322.141357,244.960083 318.819458,247.971207 316.127625,246.875397 
	C309.584503,244.211700 302.994171,245.553406 296.451599,245.161911 
	C281.828735,244.286865 271.717987,235.953796 269.252380,221.952209 
	C268.538452,217.897949 268.854614,213.660675 268.720947,209.506577 
	C268.656281,207.497086 268.875885,205.067810 266.324036,204.655792 
	C263.434601,204.189316 260.196564,203.407578 257.595978,205.197968 
	C255.484055,206.651917 257.000031,209.012680 257.664276,210.708267 
	C259.786133,216.124664 262.390747,221.352829 264.488068,226.777756 
	C266.949463,233.144455 264.870392,237.666809 259.255646,238.951294 
	C255.176147,239.884567 247.624817,236.921265 245.415527,233.564941 
	C244.620255,232.356796 244.191727,231.085541 245.119568,229.872971 
	C246.228882,228.423172 247.698425,228.607971 249.140091,229.450150 
	C250.719238,230.372635 252.221497,231.467651 253.886154,232.190750 
	C255.408142,232.851883 257.199677,233.242905 258.532684,231.782455 
	C259.753448,230.445007 259.066132,228.823059 258.400757,227.555298 
	C254.982468,221.042404 252.284058,214.260162 250.245560,207.197632 
	C249.404129,204.282410 247.025513,204.199158 244.580444,204.426102 
	C242.016724,204.664093 241.334778,206.382904 241.323364,208.620743 
	C241.307205,211.785736 241.360413,214.953598 241.245071,218.115158 
	C240.736176,232.063583 231.641785,242.154617 217.954803,244.606522 
	C208.976074,246.214981 199.607208,243.237839 190.856369,247.112152 
	C190.495117,247.272095 189.887146,246.980637 189.430817,246.804413 
	C179.957596,243.146210 170.104660,246.758148 159.940826,244.102219 
	C160.748001,253.549088 164.040054,261.018280 166.759766,268.598114 
	C172.758713,285.317108 184.366150,296.971771 200.180023,304.630249 
	C217.344574,312.942810 235.769424,315.119141 255.480927,315.645447 
M279.324860,135.260803 
	C276.491791,133.070892 274.438324,130.253372 272.999084,127.021767 
	C271.216675,123.019554 268.126007,120.923767 263.936340,119.990570 
	C257.999512,118.668198 252.696503,120.636482 247.630356,123.167778 
	C239.722366,127.119003 231.991714,127.078804 224.158798,123.177849 
	C221.328430,121.768265 218.508118,120.322075 215.600861,119.086380 
	C206.183945,115.083862 200.222351,117.909859 197.378403,127.787445 
	C195.900650,132.919937 195.395035,138.190826 195.281403,143.554657 
	C195.017273,156.026093 188.323746,163.872253 176.165863,166.662613 
	C173.777100,167.210861 170.897720,167.531540 170.265305,171.048065 
	C172.431656,172.022324 174.443619,171.720154 176.388412,171.725830 
	C188.543579,171.761368 200.700134,171.644501 212.853790,171.786804 
	C225.733200,171.937561 235.580292,178.689865 239.531601,189.859894 
	C240.136658,191.570374 240.441864,193.388458 240.861938,195.162415 
	C241.380051,197.350388 242.471008,198.851425 244.991821,198.513916 
	C247.405792,198.190704 247.663452,196.412262 247.656158,194.443085 
	C247.650604,192.947601 247.667480,191.443375 247.824005,189.958817 
	C247.937317,188.883865 248.664062,188.164856 249.750183,187.945740 
	C251.059753,187.681534 252.126907,188.204712 252.620438,189.382706 
	C253.059799,190.431351 253.252197,191.605057 253.416626,192.743362 
	C253.985519,196.681870 255.538712,199.075516 260.205109,198.722900 
	C264.534698,198.395752 268.513000,199.313370 269.788971,192.957458 
	C272.074310,181.573792 279.605286,174.631195 291.045197,172.564468 
	C301.595245,170.658478 312.313599,172.261032 322.940674,171.714279 
	C324.769409,171.620178 326.951630,172.531357 329.147125,169.461304 
	C318.130524,166.350494 315.326233,156.432755 310.461273,148.062790 
	C307.616699,143.168900 302.567963,141.647186 297.194427,141.388977 
	C290.887115,141.085907 285.083405,139.395401 279.324860,135.260803 
M368.278351,426.675873 
	C368.488739,441.356476 363.192902,453.532623 351.995911,463.172119 
	C346.831757,467.617950 341.332001,472.063293 339.495361,478.997925 
	C337.567810,486.276062 337.579407,494.001495 333.898346,501.168762 
	C335.306763,501.405243 335.965149,501.681793 336.567383,501.589996 
	C340.503357,500.990143 344.439667,500.377228 348.352936,499.645905 
	C371.291199,495.359161 393.704590,489.326935 415.112091,479.835938 
	C418.820862,478.191681 419.929047,476.306427 418.840240,472.167419 
	C414.019196,453.840576 406.803406,436.586700 396.660950,420.584503 
	C391.576019,412.561798 385.902161,404.969482 379.360718,398.047913 
	C377.538971,396.120300 375.833984,395.013733 373.549500,397.437775 
	C369.036926,402.226013 366.079712,407.714691 366.486115,414.432739 
	C366.715668,418.227478 367.631805,421.980682 368.278351,426.675873 
M363.961823,214.043976 
	C365.338409,209.130371 364.415070,204.120483 364.553711,199.156311 
	C364.591003,197.820023 364.322083,196.390884 362.775238,195.904602 
	C361.460144,195.491180 360.488281,196.390808 359.777008,197.275116 
	C356.399353,201.474304 353.234650,199.905258 350.013367,197.083755 
	C347.152557,194.577988 345.530701,191.401672 344.472748,187.797501 
	C341.483734,177.614731 341.440338,177.601303 330.845764,178.080887 
	C329.455566,178.143799 327.928741,177.759094 326.426910,178.850235 
	C331.474213,181.476257 336.209503,184.262573 339.753326,188.581863 
	C341.054932,190.168320 343.238068,191.953949 341.045929,194.153427 
	C338.772186,196.434814 337.052826,194.230850 335.655457,192.704330 
	C328.106628,184.457901 318.903625,181.702667 308.050598,184.043533 
	C306.405548,184.398361 304.648651,184.573669 303.488770,182.949539 
	C301.949371,180.793930 303.982941,179.562820 305.054718,178.221146 
	C301.073456,178.221146 297.235870,177.993103 293.434296,178.266373 
	C284.179840,178.931641 276.280060,186.232742 275.355804,195.383942 
	C274.468536,204.169022 274.415985,213.056717 275.449097,221.817841 
	C276.389862,229.795654 281.315582,235.681015 288.931976,237.566376 
	C296.069244,239.333145 304.000824,241.639542 310.415741,234.892502 
	C311.689392,233.552902 313.086182,232.243301 315.197327,232.993408 
	C317.923279,233.961945 316.137329,236.752731 317.234711,238.998993 
	C320.807556,235.980835 324.270660,232.710541 327.898682,238.292404 
	C328.207336,238.767349 329.458649,238.757507 330.271667,238.756149 
	C335.767090,238.746994 341.274445,238.885361 346.753876,238.564423 
	C351.001892,238.315613 354.998016,236.718903 355.015228,231.681244 
	C355.039978,224.444077 360.894684,220.429153 363.961823,214.043976 
M172.855377,177.980637 
	C169.409744,177.941498 168.379150,179.834198 168.228409,183.052933 
	C167.917175,189.699677 164.832443,194.762375 158.813370,197.890625 
	C155.664459,199.527176 153.147049,199.508392 151.552383,195.714813 
	C150.816132,193.963348 150.056412,191.887146 146.802582,192.233459 
	C144.268784,199.163452 145.535248,206.470276 145.615738,213.661636 
	C145.627136,214.679459 146.595444,215.577972 147.683731,215.482285 
	C152.323776,215.074387 153.248306,217.360565 152.112015,221.291916 
	C151.863464,222.151810 151.935196,223.085464 152.689835,223.556686 
	C156.008316,225.629059 155.858490,229.147247 156.534073,232.345764 
	C157.098938,235.020081 157.865250,238.041382 161.107941,238.102402 
	C169.428986,238.259033 178.274979,241.913086 185.566422,234.284225 
	C188.370865,231.349976 190.641876,232.369278 191.199188,236.222107 
	C191.314514,237.019562 191.023697,237.909424 192.165039,238.149445 
	C196.752884,235.365875 196.729126,235.413406 202.324448,238.210266 
	C203.308426,238.702118 204.582367,238.735840 205.727142,238.760391 
	C208.724075,238.824646 211.725662,238.834763 214.721771,238.745483 
	C225.837387,238.414230 234.267242,230.453171 234.847427,219.281830 
	C235.218399,212.138809 235.257721,204.946594 234.895050,197.804398 
	C234.235886,184.822998 222.854660,175.990875 209.994843,178.051056 
	C208.340393,178.316101 207.172409,178.711334 207.098724,180.712158 
	C206.967285,184.281067 204.484863,184.692520 201.791580,184.098251 
	C190.691742,181.649109 181.432373,184.679123 173.815796,193.064270 
	C172.480576,194.534256 170.822678,196.254089 168.771133,194.217819 
	C166.807266,192.268570 168.376251,190.604141 169.680862,189.029510 
	C173.810654,184.044968 179.220383,180.888016 186.147598,177.955978 
	C181.257263,177.955978 177.506821,177.955978 172.855377,177.980637 
M260.441772,321.346161 
	C257.277893,321.348236 254.113968,321.359802 250.950119,321.350708 
	C240.231201,321.319855 240.222107,321.316315 239.331802,331.870300 
	C238.456909,342.242065 233.463333,349.345734 223.180969,352.237488 
	C220.039276,353.121033 216.870193,353.907135 213.743103,354.730103 
	C214.006165,356.486603 215.208878,356.902130 216.169281,357.444641 
	C238.669006,370.154266 262.019287,372.337402 286.239960,362.930206 
	C291.548828,360.868286 292.356812,358.488159 289.916626,353.296783 
	C288.812195,350.947174 287.003937,349.259460 284.827087,347.948029 
	C281.518219,345.954620 279.544678,342.982971 278.306061,339.405914 
	C276.886322,335.305908 275.950592,331.127563 275.423035,326.803864 
	C274.641418,320.398224 274.245026,320.262939 267.897675,321.008362 
	C265.754547,321.260040 263.579224,321.237823 260.441772,321.346161 
M195.886520,357.919281 
	C189.952545,360.641144 195.279816,362.473969 196.703644,363.606476 
	C222.606308,384.209167 251.695084,389.662323 283.512726,381.277313 
	C291.873657,379.073914 292.626526,377.269775 289.439667,368.778198 
	C287.069244,369.394653 284.658356,369.965363 282.279877,370.648743 
	C255.401459,378.371338 230.300735,374.659973 207.280777,358.651642 
	C203.585602,356.082001 200.267380,356.283386 195.886520,357.919281 
M380.575256,204.957047 
	C382.031006,199.421661 382.850128,193.846634 380.466675,188.386978 
	C379.295990,185.705276 377.038513,184.211411 374.020142,184.995346 
	C371.568085,185.632202 368.663666,186.905136 369.284607,189.842941 
	C370.922974,197.594208 370.056641,205.386734 370.428864,213.149780 
	C370.496735,214.564667 370.940521,215.870972 372.432831,216.257507 
	C373.939270,216.647705 374.902588,215.563004 375.736023,214.505203 
	C377.813721,211.868240 379.224915,208.873932 380.575256,204.957047 
M130.423355,196.469055 
	C131.307175,203.472198 132.735992,210.242493 137.891464,215.886841 
	C140.201538,213.226059 139.502640,210.800934 139.608032,208.544617 
	C139.893219,202.438873 138.873871,196.246475 140.969193,190.263596 
	C141.657928,188.297012 143.047409,185.888000 140.147720,184.687286 
	C137.265259,183.493729 134.521774,184.197372 132.815735,187.076614 
	C131.264297,189.694901 130.792938,192.664459 130.423355,196.469055 
M370.919220,237.384033 
	C373.552795,237.580444 376.225342,237.528397 378.141785,239.931503 
	C379.022919,241.036362 381.012146,241.788223 381.425629,240.279755 
	C382.610229,235.958115 386.504547,234.657791 390.076874,232.208481 
	C385.834656,229.739578 383.621552,226.433884 383.007355,222.347534 
	C380.474518,221.903214 379.198212,223.617233 377.496277,224.098770 
	C374.944092,224.820831 370.427856,223.421799 371.450592,228.329529 
	C372.136871,231.622681 368.011230,233.915787 370.919220,237.384033 
M132.601257,221.764984 
	C131.765640,221.346191 130.552094,221.347290 130.569199,222.244400 
	C130.658493,226.931519 127.511192,229.614777 123.428253,232.924149 
	C129.185699,233.999527 131.730530,237.427658 133.085098,243.484924 
	C136.128464,237.827652 140.263931,237.062973 144.798859,237.269638 
	C143.013077,229.924744 140.429550,224.154861 132.601257,221.764984 
M161.792862,182.121780 
	C160.439453,175.992554 157.376694,180.436218 155.344452,181.335144 
	C153.609879,182.102402 150.860275,183.367569 152.266220,186.051315 
	C153.355026,188.129684 154.945572,190.836731 157.496384,190.826874 
	C160.037140,190.817078 160.947113,188.088394 161.528534,185.794922 
	C161.768539,184.848175 161.725433,183.829666 161.792862,182.121780 
M352.092896,190.190262 
	C353.656250,192.231339 355.326843,192.918518 357.406219,190.787399 
	C359.498535,188.642975 359.555023,186.347931 357.793121,184.126404 
	C356.262726,182.196869 354.320068,179.842285 351.682831,180.881821 
	C348.434753,182.162155 350.263245,185.077545 350.717743,187.366302 
	C350.874359,188.155060 351.354492,188.879562 352.092896,190.190262 
z"/>
<path fill="#000000" opacity="1.000000" stroke="none" 
	d="
M385.478119,307.418060 
	C389.249939,303.739532 389.161072,299.883118 387.202698,295.719818 
	C384.350342,289.656067 382.045013,283.485657 382.600922,276.547333 
	C382.990295,271.686981 384.823761,267.542572 387.876556,263.877228 
	C388.965942,262.569275 390.377411,261.355682 392.153839,262.670624 
	C393.850342,263.926392 393.470551,265.707947 392.434998,267.126862 
	C386.422089,275.365814 387.998596,283.613983 391.909729,292.120483 
	C396.408112,301.904205 395.807312,306.443329 387.629578,313.302338 
	C374.932922,323.951538 370.709717,336.986938 374.072998,352.977936 
	C375.713776,360.779022 372.620728,367.343597 367.625122,373.150818 
	C364.910736,376.306183 362.010712,379.308868 359.408020,382.551849 
	C353.633759,389.746826 349.996674,397.707306 350.200897,407.249268 
	C350.342712,413.874756 350.989532,420.548553 349.355408,427.144562 
	C348.276855,431.498138 346.118622,435.170563 343.033447,438.283600 
	C341.580170,439.750000 339.555420,440.681610 337.756866,438.793915 
	C336.011749,436.962250 337.324860,435.395233 338.772827,434.141022 
	C343.178314,430.325134 344.119293,425.132721 344.613495,419.751923 
	C344.689331,418.925873 344.728668,418.075073 344.622284,417.256836 
	C342.170776,398.400177 348.923309,383.080536 362.324799,370.113037 
	C367.514465,365.091492 369.460999,359.061096 367.931030,351.491547 
	C364.628296,335.151062 369.315460,321.233704 382.324463,310.412781 
	C383.346527,309.562653 384.267242,308.590698 385.478119,307.418060 
z"/>
<path fill="#000000" opacity="1.000000" stroke="none" 
	d="
M260.546509,34.818680 
	C253.720642,36.674225 247.282776,38.648922 240.585159,36.252544 
	C238.714233,35.583145 236.755585,34.932316 235.140976,33.828560 
	C232.950562,32.331150 229.114151,30.838184 231.243530,27.508345 
	C233.342285,24.226353 235.985306,27.398508 238.042343,28.672152 
	C243.962692,32.337807 250.085190,31.865442 256.289642,29.868765 
	C262.148926,27.983183 267.947388,25.908791 273.775024,23.924616 
	C279.027802,22.136168 284.404144,21.357641 289.974243,21.553473 
	C296.570435,21.785383 301.888702,24.415897 305.911407,29.565536 
	C308.163696,32.448807 310.140594,35.545738 312.288422,38.512508 
	C314.850983,42.052155 318.210724,44.191399 322.658539,44.719578 
	C327.274963,45.267780 331.884979,45.962688 336.447571,46.851311 
	C346.095062,48.730267 353.543396,53.929382 358.912750,62.161957 
	C362.881256,68.246674 364.992310,75.090149 366.989471,81.960281 
	C367.576965,83.981209 368.073914,86.624252 365.063232,87.253571 
	C362.366547,87.817245 361.952301,85.408867 361.367981,83.488930 
	C360.738220,81.419647 360.056793,79.365906 359.441193,77.292526 
	C354.752899,61.502014 344.472717,52.319324 327.798462,51.533886 
	C316.754120,51.013645 309.171722,46.094841 303.577881,36.650436 
	C298.408569,27.922823 292.187469,25.885006 282.309418,27.857065 
	C274.916260,29.333044 268.073334,32.461056 260.546509,34.818680 
z"/>
<path fill="#000000" opacity="1.000000" stroke="none" 
	d="
M325.504700,132.368057 
	C325.054565,131.432846 324.679138,130.854111 324.508575,130.220245 
	C321.651154,119.600563 314.268707,116.075882 303.864471,116.190964 
	C295.660797,116.281700 289.082001,112.744896 285.240143,104.998718 
	C283.762634,102.019691 282.051575,99.142586 280.269012,96.331841 
	C277.113007,91.355347 272.787537,89.618515 266.995178,90.723228 
	C260.783356,91.907944 255.671539,95.411018 250.304337,98.432198 
	C243.431839,102.300682 236.457016,105.877815 228.096237,103.342041 
	C222.867737,101.756264 218.536118,98.716057 214.376663,95.361389 
	C212.991287,94.244057 212.064804,92.706039 213.315720,91.015373 
	C214.572601,89.316711 216.217087,89.817970 217.751358,90.805717 
	C218.311615,91.166412 218.933777,91.456047 219.427094,91.891953 
	C228.936737,100.294960 238.546188,99.427200 248.592392,92.682480 
	C254.963837,88.404884 261.743958,84.820282 269.789642,84.636650 
	C276.378174,84.486267 281.404541,87.109192 284.930786,92.604202 
	C286.368683,94.844917 287.885406,97.094398 288.906433,99.532471 
	C292.330200,107.708069 298.618347,110.842842 307.141266,110.706909 
	C309.764008,110.665077 312.446136,111.178833 315.018372,111.787636 
	C320.683960,113.128571 324.952301,116.250145 327.198669,121.861893 
	C328.497284,125.106094 330.016205,128.265228 331.514709,131.425323 
	C332.713776,133.953949 334.306519,135.968063 337.569672,135.709183 
	C339.175659,135.581772 340.662384,136.081985 340.926483,137.943298 
	C341.217102,139.990982 339.692322,140.879852 338.136322,141.595901 
	C335.538574,142.791321 333.271454,141.940033 331.161041,140.342133 
	C328.545074,138.361435 327.102844,135.534317 325.504700,132.368057 
z"/>
<path fill="#000000" opacity="1.000000" stroke="none" 
	d="
M248.593201,65.557831 
	C255.451202,62.071800 261.911591,58.734890 269.281860,57.430145 
	C279.270935,55.661797 287.321716,58.432343 293.495392,66.518349 
	C293.899384,67.047493 294.393158,67.535049 294.680115,68.122566 
	C299.772064,78.548546 308.171783,80.993973 319.145844,79.458237 
	C329.817871,77.964760 338.679749,84.343155 341.860901,94.324562 
	C342.252808,95.554306 342.208557,96.643158 341.177185,97.488556 
	C339.962952,98.483818 338.686523,98.271011 337.515533,97.395950 
	C335.730164,96.061806 334.646606,94.141083 333.670502,92.228584 
	C331.088745,87.170181 326.850128,85.189034 321.406128,85.301758 
	C318.078949,85.370636 314.746185,85.400200 311.427948,85.624916 
	C304.396454,86.101097 298.716003,83.728310 294.534851,77.969711 
	C293.166138,76.084625 291.749420,74.234184 290.392517,72.340759 
	C283.832611,63.187031 277.490326,60.977551 266.580597,64.006081 
	C260.099457,65.805252 254.423248,69.362053 248.416245,72.200798 
	C240.525986,75.929512 232.818588,74.813225 227.263870,69.110329 
	C225.810715,67.618439 223.628479,65.932899 225.759659,63.650890 
	C227.595978,61.684635 229.473709,63.147114 230.952286,64.548431 
	C236.420456,69.730797 242.206924,69.498238 248.593201,65.557831 
z"/>
<path fill="#000000" opacity="1.000000" stroke="none" 
	d="
M358.419769,283.696167 
	C358.928741,287.104218 360.232849,289.802246 361.502716,292.522491 
	C364.778046,299.538605 363.866272,305.664612 358.500427,311.325775 
	C356.447845,313.491333 354.059418,315.344452 351.778931,317.286987 
	C343.359802,324.458435 339.817932,333.536621 343.234161,344.093140 
	C346.560333,354.371368 345.228821,362.948853 337.583618,370.660492 
	C335.610901,372.650330 334.454620,375.359039 334.318665,378.339233 
	C334.221954,380.459564 333.728119,382.667847 331.068542,382.415070 
	C328.279419,382.150055 328.672150,379.639648 328.692230,377.693909 
	C328.737701,373.302338 330.568207,369.499756 333.513458,366.465057 
	C339.067139,360.742767 340.325623,354.657715 337.815308,346.898102 
	C333.252228,332.793060 337.647400,321.086548 349.130219,311.882080 
	C351.071503,310.325989 352.945740,308.626221 354.573578,306.751923 
	C357.680237,303.174835 358.608459,299.247070 356.113159,294.805145 
	C349.944092,283.823456 352.379730,273.635651 359.252380,263.966797 
	C360.464172,262.261993 361.811890,259.810486 364.368835,261.447449 
	C366.900085,263.068024 365.398804,265.232849 364.227020,267.099701 
	C361.105652,272.072632 358.235046,277.133179 358.419769,283.696167 
z"/>
<path fill="#000000" opacity="1.000000" stroke="none" 
	d="
M146.610504,145.785980 
	C146.467804,146.999069 146.406219,147.829483 146.333893,148.658981 
	C146.140991,150.871613 145.357986,152.827438 142.759445,152.400299 
	C140.380829,152.009308 139.733231,149.882004 139.936096,147.762360 
	C140.363052,143.301849 142.260391,139.440582 145.396606,136.254959 
	C147.965973,133.645096 150.635666,131.131790 153.308762,128.626770 
	C157.697327,124.514107 159.814346,119.490875 159.659210,113.469147 
	C159.490631,106.925613 160.163040,100.498230 162.720963,94.391251 
	C164.616318,89.866142 167.661224,86.488838 172.533295,85.143265 
	C174.912155,84.486267 177.568558,84.384300 178.478821,87.139595 
	C179.523987,90.303207 176.585159,90.387001 174.590652,90.945335 
	C169.003082,92.509460 167.541626,97.243813 166.530792,101.985992 
	C165.737961,105.705444 165.346970,109.605011 165.460251,113.404198 
	C165.725372,122.295830 161.955246,129.060837 155.512344,134.795319 
	C152.065552,137.863098 148.154510,140.646027 146.610504,145.785980 
z"/>
<path fill="#000000" opacity="1.000000" stroke="none" 
	d="
M179.122131,130.042603 
	C180.094254,123.743034 178.096024,117.803757 179.611496,111.831009 
	C180.826370,107.043007 183.145340,103.290443 187.380310,100.771286 
	C188.733856,99.966141 190.213058,99.525810 191.447662,100.945595 
	C192.841339,102.548294 192.335571,104.288139 190.876846,105.299988 
	C185.073029,109.325790 184.553986,115.233025 185.263290,121.328667 
	C186.565491,132.519714 182.000885,140.521515 172.891296,146.606735 
	C167.871414,149.960022 163.472198,154.025192 162.221207,160.437439 
	C161.871735,162.228668 160.769455,163.575790 158.734406,163.161407 
	C156.577377,162.722198 156.531586,160.864212 156.753983,159.184418 
	C157.465057,153.813782 160.289902,149.562134 164.246964,146.063889 
	C167.106552,143.535889 170.194397,141.267624 173.148575,138.844650 
	C175.889648,136.596466 178.230179,134.048126 179.122131,130.042603 
z"/>
<path fill="#000000" opacity="1.000000" stroke="none" 
	d="
M192.477173,57.537880 
	C186.859604,61.497543 180.525070,61.367844 174.517532,62.236397 
	C165.480667,63.542927 162.811508,66.173203 162.329941,75.332802 
	C162.207520,77.661156 162.368546,80.571846 159.129242,80.473824 
	C156.022736,80.379829 156.661926,77.473694 156.634399,75.420692 
	C156.474045,63.458389 161.207169,58.104313 173.054596,56.573910 
	C176.828613,56.086395 180.614868,55.535931 184.314713,54.669273 
	C189.808197,53.382473 191.082886,51.143574 190.086014,45.746124 
	C189.689651,43.600079 188.290405,40.702877 191.653763,39.953331 
	C194.867874,39.237041 195.215530,42.364540 195.772217,44.487820 
	C197.012527,49.218452 196.808533,53.734726 192.477173,57.537880 
z"/>
<path fill="#000000" opacity="1.000000" stroke="none" 
	d="
M280.876709,257.653687 
	C282.877563,256.701599 284.247589,257.224518 284.925720,258.802612 
	C285.822235,260.888794 284.377411,262.309784 282.957001,263.477325 
	C272.245453,272.282196 260.222046,275.478760 246.632477,271.831360 
	C240.741470,270.250214 235.501831,267.462830 231.076782,263.261322 
	C229.670120,261.925720 227.804337,260.354492 229.630554,258.197601 
	C231.404953,256.101868 233.217621,257.376801 234.822861,258.713287 
	C239.495163,262.603363 244.681198,265.406860 250.690887,266.677673 
	C262.268646,269.125916 271.887299,265.127716 280.876709,257.653687 
z"/>
<path fill="#000000" opacity="1.000000" stroke="none" 
	d="
M251.853760,284.112152 
	C255.518356,283.861206 258.797424,283.731476 262.075134,283.759186 
	C263.707489,283.772949 264.995514,284.569458 265.027496,286.390625 
	C265.054169,287.909729 264.023224,288.977051 262.619690,289.051453 
	C259.353088,289.224792 256.004974,289.526276 252.817535,289.001129 
	C250.249969,288.578125 249.359360,286.610382 251.853760,284.112152 
z"/>
<path fill="#000000" opacity="1.000000" stroke="none" 
	d="
M312.491699,215.421082 
	C309.782166,211.040176 309.593445,206.910095 312.541168,203.068954 
	C315.152222,199.666519 318.943756,198.960602 322.880920,199.968582 
	C327.001373,201.023468 329.239777,204.080536 329.784088,208.210098 
	C330.340637,212.432526 328.511383,215.715179 324.895172,217.767563 
	C320.396881,220.320526 316.292969,219.342697 312.491699,215.421082 
z"/>
<path fill="#000000" opacity="1.000000" stroke="none" 
	d="
M195.232773,217.451508 
	C190.837418,219.910675 186.916672,219.815186 183.407867,216.629379 
	C180.667130,214.140945 179.226669,210.996857 180.194275,207.246109 
	C181.286255,203.013245 183.954269,200.249832 188.443329,199.723862 
	C192.803848,199.212952 196.305756,200.701431 198.426834,204.711426 
	C200.557663,208.739868 199.489044,213.225464 195.232773,217.451508 
z"/>
</svg>