<?xml version="1.0" encoding="UTF-8"?> <svg xmlns="http://www.w3.org/2000/svg" width="480" height="413" viewBox="0 0 480 413" fill="none"><path d="M103.305 62.1165C108.431 62.1165 112.585 57.5368 112.585 51.8874C112.585 46.238 108.431 41.6582 103.305 41.6582C98.18 41.6582 94.0251 46.238 94.0251 51.8874C94.0251 57.5368 98.18 62.1165 103.305 62.1165Z" fill="#D51482"></path><path d="M296.812 82.2386C298.817 82.2386 300.442 80.6142 300.442 78.6105C300.442 76.6068 298.817 74.9824 296.812 74.9824C294.808 74.9824 293.182 76.6068 293.182 78.6105C293.182 80.6142 294.808 82.2386 296.812 82.2386Z" fill="#D51482"></path><path d="M313.751 226.029C317.561 226.029 320.649 223.061 320.649 219.4C320.649 215.739 317.561 212.771 313.751 212.771C309.941 212.771 306.852 215.739 306.852 219.4C306.852 223.061 309.941 226.029 313.751 226.029Z" fill="#D51482"></path><path d="M103.387 186.012C106.222 186.012 108.52 183.722 108.52 180.898C108.52 178.073 106.222 175.783 103.387 175.783C100.553 175.783 98.2546 178.073 98.2546 180.898C98.2546 183.722 100.553 186.012 103.387 186.012Z" fill="#D51482"></path><path d="M93.8199 58.7204C98.3328 58.7204 101.991 54.8917 101.991 50.1688C101.991 45.4459 98.3328 41.6172 93.8199 41.6172C89.3069 41.6172 85.6484 45.4459 85.6484 50.1688C85.6484 54.8917 89.3069 58.7204 93.8199 58.7204Z" fill="#192C85"></path><path d="M311.862 215.555C314.651 215.555 316.912 213.21 316.912 210.317C316.912 207.425 314.651 205.08 311.862 205.08C309.072 205.08 306.811 207.425 306.811 210.317C306.811 213.21 309.072 215.555 311.862 215.555Z" fill="#192C85"></path><path d="M379.369 71.118C382.43 71.118 384.912 68.48 384.912 65.226C384.912 61.9719 382.43 59.334 379.369 59.334C376.307 59.334 373.825 61.9719 373.825 65.226C373.825 68.48 376.307 71.118 379.369 71.118Z" fill="#192C85"></path><path d="M258.973 107.534C258.07 106.102 256.592 107.452 255.976 108.434C254.703 110.48 253.882 113.017 254.826 115.349C255.524 117.108 257.249 118.581 259.261 118.295C261.109 118.049 262.505 116.535 262.464 114.694C262.464 114.203 261.766 113.835 261.396 114.244C259.22 116.985 256.551 120.873 258.727 124.391C260.246 126.805 263.983 127.133 265.461 124.514C265.092 124.473 264.722 124.432 264.352 124.35C264.558 125.496 264.763 126.642 264.927 127.787C265.051 128.565 266.241 128.238 266.118 127.46C265.913 126.314 265.708 125.169 265.543 124.023C265.461 123.491 264.64 123.45 264.435 123.859C263.778 125.005 262.299 125.414 261.109 124.841C259.795 124.187 259.22 122.714 259.22 121.282C259.22 118.909 260.903 116.822 262.299 115.062C261.93 114.899 261.601 114.776 261.232 114.612C261.273 116.167 259.753 117.313 258.234 116.985C257.084 116.74 256.345 115.758 255.935 114.694C255.524 113.589 255.565 112.485 255.894 111.38C255.935 111.298 257.618 107.657 257.865 108.066C258.316 108.802 259.384 108.188 258.973 107.534Z" fill="#D51482"></path><path d="M91.315 111.216C92.2184 108.761 95.216 109.825 96.1604 111.543C96.4889 112.116 96.6531 112.771 96.7353 113.425C96.8995 114.653 96.7763 115.144 95.7087 115.88C94.559 117.026 94.2715 116.576 94.8875 114.53C95.1749 114.407 95.5034 114.284 95.7908 114.162C96.571 113.957 97.4744 113.998 98.2546 114.244C100.226 114.898 101.211 116.985 100.924 118.908C100.842 119.399 101.334 119.89 101.827 119.604C104.496 118.09 108.027 119.767 108.643 122.754C108.808 123.532 109.998 123.204 109.834 122.427C109.054 118.663 104.578 116.699 101.211 118.581C101.499 118.826 101.827 119.031 102.114 119.276C102.648 115.676 99.8971 112.32 96.0783 112.893C94.7643 113.098 92.7933 113.916 92.629 115.471C92.5058 116.739 93.6966 117.681 94.8875 117.803C98.4188 118.131 98.3367 113.016 97.187 110.97C95.6266 108.188 91.315 107.492 90.0831 110.929C89.8368 111.625 91.0276 111.952 91.315 111.216Z" fill="#D51482"></path><path d="M307.509 265.226C310.671 267.312 313.34 269.972 315.475 273.082C315.927 273.736 316.995 273.123 316.543 272.468C314.285 269.195 311.492 266.412 308.166 264.203C307.468 263.712 306.852 264.776 307.509 265.226Z" fill="#192C85"></path><path d="M315.516 267.477C316.173 268.255 316.789 269.073 317.446 269.85C317.939 270.464 318.801 269.605 318.309 268.991C317.652 268.214 317.036 267.395 316.379 266.618C315.886 266.004 315.024 266.904 315.516 267.477Z" fill="#192C85"></path><path d="M311.739 256.02C314.572 258.638 316.913 261.625 318.719 265.021C319.089 265.717 320.156 265.103 319.787 264.408C317.939 260.93 315.516 257.82 312.601 255.16C312.026 254.588 311.164 255.488 311.739 256.02Z" fill="#192C85"></path><path d="M27.8325 302.093C28.7359 310.972 30.2963 319.728 32.4726 328.402C32.6779 329.18 33.8687 328.852 33.6634 328.075C31.5282 319.523 29.9678 310.849 29.0644 302.093C28.9823 301.315 27.7504 301.315 27.8325 302.093Z" fill="#E8E8E8"></path><path d="M32.7189 328.812C40.8082 330.898 49.226 330.898 57.3153 328.812C58.0955 328.607 57.767 327.421 56.9868 327.625C49.1028 329.671 40.9314 329.671 33.0474 327.625C32.3082 327.421 31.9798 328.607 32.7189 328.812Z" fill="#E8E8E8"></path><path d="M58.2597 327.582C58.7936 318.867 59.4916 310.152 60.3129 301.437C60.395 300.659 59.1631 300.659 59.081 301.437C58.2597 310.152 57.5617 318.867 57.0279 327.582C56.9868 328.36 58.2187 328.36 58.2597 327.582Z" fill="#E8E8E8"></path><path d="M28.5306 302.746C38.7551 304.833 49.2671 304.751 59.4917 302.46C60.2719 302.296 59.9434 301.11 59.1632 301.273C49.185 303.483 38.8783 303.606 28.8591 301.56C28.0789 301.396 27.7504 302.583 28.5306 302.746Z" fill="#E8E8E8"></path><path d="M28.4074 305.693C28.7359 307.371 30.8712 307.289 32.1852 307.412C35.5112 307.698 38.8783 307.78 42.2044 307.698C45.4073 307.616 48.6102 307.371 51.813 307.003C54.3589 306.675 56.8226 306.348 59.0811 305.08C59.7791 304.711 59.1632 303.648 58.4651 304.016C54.4 306.266 48.7744 306.184 44.2165 306.389C41.958 306.471 39.6585 306.512 37.4001 306.471C36.2093 306.43 29.8446 306.716 29.5982 305.366C29.434 304.589 28.2842 304.916 28.4074 305.693Z" fill="#E8E8E8"></path><path d="M30.748 319.89C32.719 323.368 35.2238 326.437 38.2214 329.097C38.7963 329.629 39.6997 328.769 39.0837 328.237C36.1272 325.66 33.7045 322.673 31.8156 319.277C31.4461 318.581 30.3784 319.195 30.748 319.89Z" fill="#E8E8E8"></path><path d="M29.1466 310.441C33.3349 317.478 38.4267 323.943 44.2576 329.753C44.8324 330.326 45.6948 329.426 45.1199 328.894C39.3711 323.166 34.3615 316.783 30.2142 309.827C29.8036 309.172 28.7359 309.786 29.1466 310.441Z" fill="#E8E8E8"></path><path d="M36.0039 307.494C40.3565 315.227 45.4072 322.551 51.1148 329.384C51.6076 329.998 52.4699 329.139 51.9771 328.525C46.3516 321.774 41.342 314.532 37.0715 306.88C36.7019 306.185 35.6343 306.798 36.0039 307.494Z" fill="#E8E8E8"></path><path d="M43.8469 307.78C48.0764 314.082 52.3469 320.342 56.6584 326.602C57.1101 327.257 58.1778 326.643 57.7261 325.988C53.4145 319.728 49.144 313.468 44.9145 307.167C44.4629 306.512 43.3952 307.126 43.8469 307.78Z" fill="#E8E8E8"></path><path d="M50.4168 307.413C52.5521 310.85 54.8516 314.205 57.2332 317.479C57.6849 318.092 58.7525 317.479 58.3008 316.865C55.9192 313.592 53.6197 310.236 51.4844 306.799C51.0738 306.145 50.0062 306.758 50.4168 307.413Z" fill="#E8E8E8"></path><path d="M14.8979 266.085C15.3906 268.909 15.8833 271.773 16.4172 274.596C16.5814 275.373 16.7046 276.192 17.3616 276.683C17.8133 277.051 19.2915 277.01 19.579 277.419C19.62 277.174 19.6611 276.928 19.6611 276.683C19.0452 277.297 18.4292 277.91 17.7722 278.483C17.608 278.647 17.5669 278.892 17.608 279.097C17.9775 280.202 18.2239 281.838 18.963 282.779C19.3326 283.27 19.9896 283.189 20.277 283.475C20.5234 283.72 20.4413 283.557 20.3181 284.293C20.236 284.907 20.236 285.562 20.3181 286.216C20.4413 287.198 20.7287 288.139 21.0983 289.04C23.2335 294.195 27.3809 298.369 31.3639 302.215C31.9388 302.747 32.8011 301.887 32.2262 301.356C29.6804 298.901 27.1345 296.364 25.0403 293.5C22.9872 290.676 20.5645 286.871 21.8374 283.27C21.9195 283.066 21.8374 282.779 21.6732 282.657C20.893 282.043 20.1128 282.288 19.579 281.306C18.5524 279.465 19.1273 278.851 20.4413 277.583C20.6466 277.419 20.6877 277.051 20.5234 276.846C20.1949 276.355 19.9485 276.192 19.4147 276.028C19.0862 275.905 18.5935 276.028 18.265 275.864C17.5669 275.496 17.5669 274.596 17.4437 273.941C16.951 271.241 16.4582 268.5 16.0065 265.799C15.9244 264.981 14.7336 265.308 14.8979 266.085Z" fill="#E8E8E8"></path><path d="M15.8011 265.923C31.8155 271.242 42.7792 286.136 43.1077 302.994C43.1077 303.771 44.3396 303.771 44.3396 302.994C44.0111 285.604 32.6778 270.26 16.1297 264.736C15.3905 264.491 15.062 265.677 15.8011 265.923Z" fill="#E8E8E8"></path><path d="M40.3975 286.216C44.3806 275.21 50.2525 264.571 59.6558 257.329C60.2718 256.838 59.6558 255.774 59.0399 256.265C49.3491 263.753 43.313 274.555 39.2067 285.889C38.9603 286.625 40.1511 286.953 40.3975 286.216Z" fill="#E8E8E8"></path><path d="M58.5884 257.085C58.8758 260.849 59.2043 264.614 59.4918 268.419C59.5739 269.196 60.8058 269.196 60.7237 268.419C60.4362 264.655 60.1077 260.89 59.8203 257.085C59.7792 256.308 58.5473 256.308 58.5884 257.085Z" fill="#E8E8E8"></path><path d="M60.0255 268.01C59.4917 268.133 58.9579 268.256 58.4651 268.419C57.685 268.624 58.0135 269.81 58.7937 269.606C59.3275 269.483 59.8613 269.36 60.354 269.197C61.1342 268.992 60.8057 267.846 60.0255 268.01Z" fill="#E8E8E8"></path><path d="M57.8491 269.523C58.0133 270.3 58.6703 270.791 59.4094 270.873C59.738 270.914 60.0254 270.586 60.0254 270.259C60.0254 269.891 59.738 269.686 59.4094 269.645C59.5326 269.645 59.4094 269.645 59.3684 269.645C59.3273 269.645 59.2452 269.604 59.3273 269.645C59.2863 269.604 59.2452 269.604 59.2041 269.563C59.122 269.523 59.2863 269.645 59.1631 269.523C59.122 269.482 59.122 269.482 59.0809 269.441C59.1631 269.522 59.0809 269.441 59.0809 269.4C59.0399 269.359 59.0399 269.277 59.0399 269.359C59.0399 269.318 58.9988 269.236 58.9988 269.195C58.9167 268.868 58.5471 268.663 58.2597 268.786C57.9312 268.868 57.7669 269.195 57.8491 269.523Z" fill="#E8E8E8"></path><path d="M58.7937 270.424C58.8347 272.756 58.7526 275.048 58.5062 277.339C58.4241 278.076 58.5473 279.794 58.0545 280.367C58.0135 280.408 57.2743 280.531 57.1101 280.653C56.4942 281.144 57.3565 282.004 57.9724 281.513C58.1777 281.349 58.6705 281.513 58.999 281.144C59.4917 280.653 59.4096 279.508 59.4917 278.935C59.8613 276.112 60.0255 273.247 59.9845 270.383C60.0255 269.647 58.7937 269.647 58.7937 270.424Z" fill="#E8E8E8"></path><path d="M56.6172 281.716C57.9312 283.271 57.5616 285.849 57.4384 287.731C57.2742 289.899 56.9046 291.904 55.837 293.787C54.3177 296.569 52.1824 298.901 51.0737 301.929C50.7863 302.665 51.9771 302.993 52.2645 302.256C53.7428 298.287 57.151 295.341 58.1775 291.168C58.9167 288.181 59.6147 283.394 57.4795 280.857C56.9867 280.284 56.1244 281.143 56.6172 281.716Z" fill="#E8E8E8"></path><path d="M46.9265 302.501C48.0762 290.881 51.1559 279.547 56.0834 268.991C56.4119 268.295 55.3443 267.64 55.0158 268.377C50.0062 279.179 46.8444 290.676 45.6946 302.542C45.6125 303.32 46.8444 303.279 46.9265 302.501Z" fill="#E8E8E8"></path><path d="M22.6996 272.754C29.8856 281.756 35.1415 292.108 38.2212 303.155C38.4265 303.933 39.6173 303.605 39.412 302.828C36.2502 291.535 30.871 281.06 23.5619 271.895C23.0692 271.281 22.2069 272.14 22.6996 272.754Z" fill="#E8E8E8"></path><path d="M23.48 287.854C26.9292 287.649 30.1321 288.467 33.0475 290.268C33.7045 290.677 34.3615 289.613 33.6634 289.204C30.5837 287.322 27.0934 286.422 23.48 286.626C22.6587 286.667 22.6587 287.895 23.48 287.854Z" fill="#E8E8E8"></path><path d="M30.9944 282.371C30.748 280.121 31.0355 277.952 31.8978 275.825C32.1852 275.088 30.9944 274.761 30.707 275.497C29.8036 277.707 29.5161 279.998 29.7625 282.371C29.8446 283.149 31.0765 283.149 30.9944 282.371Z" fill="#E8E8E8"></path><path d="M44.2986 275.578C45.6536 278.893 47.6246 282.412 48.1174 285.93C48.2406 286.708 49.4314 286.38 49.3082 285.603C48.7744 282.043 46.8034 278.524 45.4894 275.251C45.2019 274.515 44.0111 274.842 44.2986 275.578Z" fill="#E8E8E8"></path><path d="M51.854 279.467C53.0448 278.116 54.1946 276.521 55.7139 275.498C56.9868 274.638 58.3829 274.066 59.3684 272.879C59.8612 272.265 58.9989 271.406 58.5061 272.02C57.4385 273.288 55.8781 273.82 54.6052 274.802C53.2091 275.866 52.1414 277.298 50.9917 278.607C50.4579 279.221 51.3202 280.08 51.854 279.467Z" fill="#E8E8E8"></path><path d="M52.2647 302.092C54.2357 301.56 56.2477 301.356 58.3009 301.479C59.0811 301.519 59.0811 300.292 58.3009 300.251C56.1246 300.128 54.0304 300.333 51.9362 300.906C51.1971 301.11 51.4845 302.297 52.2647 302.092Z" fill="#E8E8E8"></path><path d="M52.1003 302.583C54.3998 302.788 56.6172 302.501 58.8346 301.806C59.5737 301.56 59.2452 300.374 58.5061 300.619C56.4119 301.274 54.2766 301.519 52.1003 301.356C51.3201 301.315 51.3201 302.542 52.1003 302.583Z" fill="#E8E8E8"></path><path d="M29.0644 302.38C29.5982 302.38 30.0909 302.38 30.6248 302.38C31.4049 302.38 31.4049 301.152 30.6248 301.152C30.0909 301.152 29.5982 301.152 29.0644 301.152C28.2842 301.152 28.2842 302.38 29.0644 302.38Z" fill="#E8E8E8"></path><path d="M59.1633 312.282C72.1801 312.282 85.238 312.282 98.2548 312.282C99.035 312.282 99.035 311.055 98.2548 311.055C85.238 311.055 72.1801 311.055 59.1633 311.055C58.3831 311.055 58.3831 312.282 59.1633 312.282Z" fill="#E8E8E8"></path><path d="M279.505 304.179C287.265 304.179 294.985 304.179 302.746 304.179C303.526 304.179 303.526 302.951 302.746 302.951C294.985 302.951 287.265 302.951 279.505 302.951C278.724 302.951 278.724 304.179 279.505 304.179Z" fill="#E8E8E8"></path><path d="M349.968 304.917C383.434 304.917 416.9 304.917 450.366 304.917C459.892 304.917 469.419 304.917 478.945 304.917C479.725 304.917 479.725 303.689 478.945 303.689C445.479 303.689 412.013 303.689 378.547 303.689C369.021 303.689 359.494 303.689 349.968 303.689C349.188 303.689 349.188 304.917 349.968 304.917Z" fill="#E8E8E8"></path><path d="M300.405 170.586C297.285 177.01 293.917 183.311 290.345 189.489C290.181 189.817 290.304 190.349 290.715 190.389C308.33 193.049 324.098 201.764 339.291 210.561C339.99 210.971 340.605 209.907 339.907 209.498C324.591 200.66 308.741 191.903 291.002 189.203C291.125 189.489 291.248 189.817 291.372 190.103C294.985 183.925 298.311 177.623 301.432 171.2C301.801 170.504 300.775 169.849 300.405 170.586Z" fill="#E8E8E8"></path><path d="M303.116 192.885C304.347 189.366 305.579 185.807 306.811 182.288C307.345 180.815 307.715 179.178 308.413 177.746C308.577 176.887 309.111 176.232 309.932 175.741C310.425 175.864 310.917 175.987 311.41 176.109C312.149 176.314 312.888 176.478 313.586 176.682C315.27 177.091 317.98 177.091 317.693 179.342C317.487 180.938 316.543 182.656 316.009 184.211C314.777 187.689 313.586 191.167 312.355 194.645C312.108 195.381 313.299 195.709 313.545 194.972C315.147 190.389 316.748 185.766 318.35 181.183C318.719 180.119 319.746 178.319 318.925 177.173C318.021 175.946 315.311 175.864 313.915 175.496C312.56 175.168 310.178 173.941 308.782 174.596C307.591 175.127 307.345 177.173 306.975 178.196C305.292 182.983 303.608 187.812 301.925 192.599C301.678 193.294 302.869 193.622 303.116 192.885Z" fill="#E8E8E8"></path><path d="M318.966 197.265C321.594 191.741 324.263 186.176 326.891 180.653C328.205 177.87 329.519 175.129 330.874 172.346C331.49 171.078 331.982 169.564 332.763 168.378C333.42 167.355 333.584 167.109 334.734 167.559C335.35 167.805 336.089 168.418 336.623 168.787C337.321 169.278 338.429 169.81 338.922 170.464C339.538 171.242 339.292 172.06 338.922 173.042C338.429 174.351 337.69 175.62 337.074 176.888C335.719 179.671 334.364 182.453 332.927 185.235C330.217 190.513 327.383 195.751 324.468 200.947C324.057 201.643 325.125 202.257 325.536 201.561C329.108 195.26 332.516 188.877 335.719 182.412C337.321 179.22 339.086 175.947 340.441 172.633C341.386 170.219 339.333 169.237 337.526 167.968C336.089 166.986 333.83 164.736 332.27 166.577C331.284 167.723 330.751 169.646 330.094 171.037C329.272 172.715 328.492 174.392 327.671 176.111C324.386 182.985 321.101 189.859 317.857 196.733C317.57 197.347 318.637 198.001 318.966 197.265Z" fill="#E8E8E8"></path><path d="M332.598 205.776C336.13 200.252 340.113 195.015 344.506 190.186C344.26 190.227 344.014 190.268 343.767 190.268C345.328 191.332 346.847 192.355 348.407 193.419C348.325 193.132 348.243 192.846 348.202 192.56C344.712 198.001 341.221 203.402 337.731 208.844C337.32 209.499 338.347 210.113 338.799 209.458C342.289 204.016 345.779 198.615 349.27 193.173C349.475 192.887 349.311 192.519 349.064 192.314C347.504 191.25 345.985 190.227 344.424 189.163C344.219 189 343.849 189.082 343.685 189.245C339.209 194.196 335.144 199.474 331.572 205.08C331.12 205.857 332.188 206.471 332.598 205.776Z" fill="#E8E8E8"></path><path d="M381.586 166.864C377.48 165.309 374.893 161.217 375.632 156.839C376.371 152.379 380.765 148.41 385.281 151.07C388.402 152.911 390.004 157.084 388.813 160.481C387.581 164.122 383.557 166.291 379.82 165.718C379.04 165.595 378.712 166.782 379.492 166.904C383.885 167.559 388.525 165.145 390.004 160.808C391.482 156.471 389.1 151.233 384.83 149.474C379.82 147.428 375.262 151.724 374.4 156.512C373.497 161.585 376.494 166.25 381.216 168.05C381.997 168.337 382.325 167.15 381.586 166.864Z" fill="#E8E8E8"></path><path d="M390.004 166.086C381.832 165.841 384.912 152.788 392.139 153.279C399.366 153.811 396.41 168.5 388.485 165.8C387.745 165.554 387.417 166.741 388.156 166.986C397.313 170.096 401.419 153.484 392.673 152.093C388.402 151.397 384.543 155.407 383.886 159.376C383.229 163.304 385.898 167.15 390.004 167.273C390.784 167.355 390.784 166.127 390.004 166.086Z" fill="#E8E8E8"></path><path d="M383.885 129.056C383.187 128.319 382.859 127.133 383.393 126.232C383.926 125.373 385.24 124.964 386.062 125.619C386.801 126.191 386.965 127.419 386.267 128.033C385.446 128.769 384.132 128.401 383.352 127.787C382.736 127.296 381.873 128.155 382.489 128.646C383.762 129.628 385.733 130.119 387.088 128.933C388.32 127.828 388.197 125.782 386.965 124.718C385.692 123.614 383.68 123.941 382.612 125.169C381.422 126.56 381.75 128.646 382.982 129.915C383.557 130.488 384.419 129.628 383.885 129.056Z" fill="#E8E8E8"></path><path d="M264.722 159.866C263.572 152.911 267.638 144.523 275.522 144.604C279.546 144.645 283.447 146.282 287.512 145.709C290.386 145.3 292.85 143.663 294.574 141.413C296.299 139.163 297.285 136.339 297.449 133.516C297.654 129.343 296.053 125.087 297.203 120.955C297.777 118.868 299.009 116.945 301.103 116.167C303.116 115.472 305.292 115.881 307.386 115.799C310.425 115.676 312.806 114.367 314.326 111.707C316.461 107.984 315.968 103.524 317.446 99.5961C319.212 94.8498 324.181 90.799 329.437 93.1313C330.135 93.4586 330.792 92.3948 330.052 92.0674C322.908 88.8759 316.954 95.2999 315.557 101.765C314.654 105.979 314.818 112.526 309.768 114.203C306.236 115.39 302.253 113.549 299.009 115.963C296.34 117.927 295.56 121.527 295.601 124.678C295.724 129.302 297.161 133.802 295.108 138.221C293.219 142.395 289.483 144.891 284.843 144.604C280.736 144.359 276.671 142.681 272.524 143.745C265.502 145.505 262.505 153.77 263.613 160.235C263.696 160.93 264.886 160.603 264.722 159.866Z" fill="#E8E8E8"></path><path d="M316.625 130.693C315.106 127.256 317.2 123.983 320.526 122.878C322.949 122.059 325.618 122.019 327.712 120.382C329.354 119.113 329.888 117.518 329.683 115.472C329.478 113.549 329.478 112.035 330.997 110.726C332.27 109.621 333.953 109.212 335.596 109.13C340.113 108.966 346.313 111.257 349.598 106.879C351.118 104.834 350.666 102.297 351.364 100.005C352.308 96.8139 355.388 94.8499 358.673 95.0136C359.453 95.0545 359.453 93.827 358.673 93.7861C356.168 93.6633 353.746 94.6044 352.021 96.4047C349.886 98.6551 350.173 101.192 349.516 104.015C347.75 111.748 336.951 106.307 331.859 108.721C329.97 109.621 328.451 111.217 328.287 113.344C328.081 115.84 329.231 117.886 326.685 119.604C325.33 120.505 323.77 120.791 322.21 121.159C319.623 121.773 317.077 122.55 315.763 125.046C314.695 127.01 314.695 129.261 315.598 131.266C315.886 132.043 316.912 131.388 316.625 130.693Z" fill="#E8E8E8"></path><path d="M389.799 76.1917C389.634 75.8234 389.47 75.4142 389.347 75.0051C389.881 74.3913 390.373 73.7776 390.907 73.1638C391.071 73.1229 391.811 73.6139 392.057 73.6139C392.673 73.6958 393.207 73.5321 393.699 73.1638C395.219 71.9773 394.685 70.0951 395.137 68.4993C395.876 65.7579 399.12 67.6401 400.598 65.5942C402.076 63.5893 401.542 59.334 405.484 60.4797C406.265 60.6842 406.593 59.4977 405.813 59.2931C403.554 58.6384 401.501 59.7022 400.68 61.8708C400.434 62.4846 400.352 63.1802 400.105 63.7939C399.571 65.226 398.996 65.4306 397.436 65.5124C396.286 65.5943 395.383 65.5124 394.603 66.4944C393.946 67.3537 393.946 68.4584 393.823 69.4813C393.699 70.9952 393.823 72.2637 391.564 72.1C391.113 72.0591 390.743 71.6499 390.25 71.6499C387.54 71.609 387.992 74.9233 388.649 76.519C388.895 77.2555 390.127 76.9282 389.799 76.1917Z" fill="#E8E8E8"></path><path d="M397.518 79.5884C396.861 78.7292 395.753 76.2333 397.683 75.5786C398.381 75.3331 399.284 75.6195 400.023 75.6195C400.68 75.6195 401.255 75.6195 401.789 75.1694C403.431 73.8601 402.241 71.5278 403.103 69.8912C404.499 67.2316 407.291 69.3184 409.262 67.9272C410.658 66.9452 411.028 65.063 411.274 63.5082C411.397 62.7308 410.207 62.4034 410.083 63.1809C409.796 65.0221 409.468 67.0679 407.168 67.2725C405.977 67.3953 405.074 66.9861 403.965 67.518C402.158 68.3773 401.584 69.973 401.542 71.8143C401.501 73.3691 401.871 74.1465 399.243 74.2693C398.914 74.2693 398.586 74.1874 398.257 74.1874C397.313 74.2693 396.492 74.7603 395.958 75.5377C394.808 77.1744 395.465 79.0565 396.615 80.4886C397.149 81.1023 398.011 80.2022 397.518 79.5884Z" fill="#E8E8E8"></path><path d="M48.4047 101.765C51.8129 97.6731 56.6583 94.3179 62.2428 94.8908C68.32 95.5045 71.3176 100.333 71.8925 105.979C72.878 115.349 70.5784 126.56 76.9431 134.539C79.4479 137.69 83.1846 139.367 87.2088 138.385C92.0541 137.239 95.8319 133.434 100.143 131.184C105.235 128.524 112.257 127.092 116.856 131.552C120.223 134.825 120.962 139.817 122.071 144.154C123.097 148.082 124.863 152.42 128.394 154.752C130.53 156.143 132.87 156.266 135.334 156.102C138.085 155.897 143.711 155.734 143.136 160.03C143.054 160.807 144.286 160.807 144.368 160.03C144.573 158.352 143.793 157.002 142.438 156.02C140.303 154.465 137.839 154.711 135.334 154.875C132.501 155.079 130.078 154.834 127.902 152.829C125.931 151.028 124.74 148.492 123.878 145.996C122.44 141.699 122.03 136.994 119.566 133.066C117.143 129.179 112.955 127.297 108.438 127.46C102.73 127.665 97.9261 130.938 93.3681 133.966C91.1918 135.398 88.8513 136.912 86.1822 137.362C82.9793 137.894 80.146 136.503 78.0929 134.13C74.233 129.629 73.6171 123.205 73.4118 117.559C73.2065 112.28 73.9045 106.552 72.1388 101.437C70.5374 96.7729 66.4722 93.8679 61.5858 93.6224C55.9191 93.3359 50.9506 96.732 47.4603 100.906C47.0086 101.519 47.8709 102.379 48.4047 101.765Z" fill="#E8E8E8"></path><path d="M27.6683 164.898C34.074 175.537 39.7817 186.543 44.8324 197.877C45.1609 198.614 46.2285 197.959 45.9 197.263C40.8493 185.929 35.1006 174.923 28.7359 164.284C28.3253 163.589 27.2577 164.203 27.6683 164.898Z" fill="#E8E8E8"></path><path d="M28.4484 164.407C38.4266 158.229 48.6922 152.46 59.2453 147.222C59.9433 146.854 59.3274 145.79 58.6293 146.158C48.1173 151.396 37.8517 157.165 27.8325 163.343C27.1344 163.793 27.7503 164.857 28.4484 164.407Z" fill="#E8E8E8"></path><path d="M58.5063 146.69C63.7212 157.615 69.2236 168.376 75.0544 178.974C75.424 179.669 76.4916 179.055 76.1221 178.36C70.2912 167.762 64.7478 157.001 59.5739 146.077C59.2044 145.34 58.1778 145.954 58.5063 146.69Z" fill="#E8E8E8"></path><path d="M46.2284 198.124C56.0423 192.232 65.733 186.176 75.3417 179.957C75.9987 179.547 75.3827 178.484 74.7257 178.893C65.1171 185.112 55.4264 191.168 45.6124 197.06C44.9554 197.469 45.5714 198.533 46.2284 198.124Z" fill="#E8E8E8"></path><path d="M45.4483 160.808C45.2019 168.664 45.6536 176.479 46.8033 184.253C46.9265 185.03 48.1173 184.703 47.9941 183.926C46.8444 176.274 46.4338 168.541 46.6801 160.808C46.7212 160.03 45.4893 160.03 45.4483 160.808Z" fill="#E8E8E8"></path><path d="M45.4892 160.398C51.1969 164.858 56.9046 169.236 62.6944 173.574C63.3104 174.065 63.9263 173.001 63.3104 172.51C57.6027 168.254 51.936 163.917 46.3515 159.539C45.7356 159.048 44.8733 159.907 45.4892 160.398Z" fill="#E8E8E8"></path><path d="M48.0762 184.498C52.7983 180.284 58.9577 178.033 63.4335 173.492C64.0084 172.919 63.105 172.059 62.5712 172.632C58.0954 177.133 51.9771 179.424 47.2138 183.639C46.5979 184.13 47.5013 184.989 48.0762 184.498Z" fill="#E8E8E8"></path><path d="M29.3107 171.322C30.6247 170.667 31.9387 170.054 33.2527 169.399C33.9508 169.072 33.3348 168.008 32.6368 168.335C31.3228 168.99 30.0088 169.604 28.6948 170.258C27.9967 170.627 28.6126 171.649 29.3107 171.322Z" fill="#E8E8E8"></path><path d="M33.5403 178.279C34.6489 177.543 35.8398 176.929 37.0716 176.397C37.8108 176.11 37.4823 174.924 36.7431 175.21C35.3881 175.783 34.1151 176.438 32.8833 177.215C32.2673 177.665 32.8833 178.729 33.5403 178.279Z" fill="#E8E8E8"></path><path d="M38.1803 186.299C39.3301 185.726 40.4798 185.154 41.6296 184.622C42.3277 184.253 41.7117 183.23 41.0137 183.558C39.8639 184.131 38.7142 184.703 37.5644 185.235C36.8663 185.563 37.4823 186.627 38.1803 186.299Z" fill="#E8E8E8"></path><path d="M40.5618 194.317C41.8347 193.212 43.1487 192.271 44.6269 191.453C45.325 191.044 44.7091 190.021 44.011 190.389C42.4917 191.248 41.0545 192.271 39.6994 193.458C39.0835 193.99 39.9458 194.849 40.5618 194.317Z" fill="#E8E8E8"></path><path d="M60.8467 154.752C61.7911 154.097 62.7766 153.647 63.8853 153.361C64.6655 153.156 64.337 152.01 63.5568 152.174C62.366 152.461 61.2162 152.952 60.1897 153.688C59.5737 154.138 60.1897 155.202 60.8467 154.752Z" fill="#E8E8E8"></path><path d="M64.5014 161.749C65.8154 160.931 67.1294 160.113 68.4023 159.254C69.0593 158.844 68.4434 157.781 67.7864 158.19C66.4724 159.008 65.1584 159.826 63.8854 160.686C63.1874 161.136 63.8033 162.2 64.5014 161.749Z" fill="#E8E8E8"></path><path d="M68.6897 170.137C70.0859 169.523 71.523 168.909 72.9192 168.296C73.6583 167.968 73.0013 166.904 72.3032 167.232C70.9071 167.845 69.4699 168.459 68.0738 169.073C67.3347 169.4 67.9917 170.464 68.6897 170.137Z" fill="#E8E8E8"></path><path d="M71.6871 175.618C72.7958 174.554 74.0277 173.654 75.3828 172.877C76.0808 172.508 75.4649 171.444 74.7668 171.813C73.3296 172.631 72.0156 173.572 70.8248 174.718C70.25 175.291 71.1123 176.15 71.6871 175.618Z" fill="#E8E8E8"></path><path d="M49.7188 192.722C50.7453 194.236 51.6076 195.832 52.2646 197.51C52.5521 198.246 53.7429 197.919 53.4554 197.182C52.7574 195.382 51.8951 193.663 50.7864 192.068C50.3347 191.454 49.2671 192.068 49.7188 192.722Z" fill="#E8E8E8"></path><path d="M56.0014 189.326C56.7816 190.717 57.5207 192.067 58.3009 193.459C58.6705 194.154 59.7381 193.54 59.3685 192.845C58.5884 191.454 57.8492 190.103 57.069 188.712C56.6995 188.017 55.6319 188.63 56.0014 189.326Z" fill="#E8E8E8"></path><path d="M63.2695 184.131C64.0907 185.604 64.912 187.077 65.7332 188.55C66.1028 189.245 67.1704 188.632 66.8009 187.936C65.9796 186.463 65.1584 184.99 64.3371 183.517C63.9676 182.821 62.8999 183.435 63.2695 184.131Z" fill="#E8E8E8"></path><path d="M69.7984 180.242C70.4554 181.797 71.1123 183.352 71.8104 184.866C72.1389 185.602 73.1655 184.947 72.878 184.252C72.221 182.697 71.564 181.142 70.866 179.628C70.5375 178.933 69.4699 179.546 69.7984 180.242Z" fill="#E8E8E8"></path><path d="M32.5548 158.107C33.3349 159.375 34.0741 160.643 34.8542 161.871C35.2649 162.566 36.3325 161.912 35.9219 161.257C35.1417 159.989 34.4026 158.72 33.6224 157.493C33.2117 156.838 32.1441 157.452 32.5548 158.107Z" fill="#E8E8E8"></path><path d="M39.6174 154.015C40.3565 155.651 41.0956 157.288 41.8347 158.925C42.1632 159.661 43.2309 159.006 42.9024 158.311C42.1633 156.674 41.4241 155.038 40.685 153.401C40.3154 152.664 39.2889 153.278 39.6174 154.015Z" fill="#E8E8E8"></path><path d="M45.9822 150.087C47.0909 151.56 47.9532 153.155 48.5281 154.874C48.7744 155.61 49.9652 155.283 49.7189 154.546C49.1029 152.705 48.2406 150.987 47.0498 149.473C46.5981 148.859 45.5305 149.432 45.9822 150.087Z" fill="#E8E8E8"></path><path d="M52.8396 146.937C53.7019 148.246 54.5232 149.514 55.3855 150.824C55.7961 151.478 56.8637 150.865 56.4531 150.21C55.5908 148.901 54.7695 147.632 53.9072 146.323C53.4555 145.668 52.3879 146.282 52.8396 146.937Z" fill="#E8E8E8"></path><path d="M116.692 65.7978C112.709 64.5703 112.503 60.3559 114.392 57.2053C116.24 54.1365 119.812 53.3182 122.605 55.855C124.904 57.9827 125.11 61.6243 122.974 63.9565C120.839 66.3297 117.349 66.2888 114.885 64.4885C114.269 63.9975 113.653 65.0613 114.269 65.5523C117.39 67.8436 121.948 67.4754 124.288 64.243C126.711 60.9696 125.849 56.387 122.44 54.1775C114.228 48.8992 107.165 64.1202 116.363 66.9844C117.143 67.2299 117.472 66.0433 116.692 65.7978Z" fill="#E8E8E8"></path><path d="M123.303 66.8624C120.223 67.8035 119.484 64.121 120.839 62.157C121.948 60.5612 124.124 59.6201 126.095 60.1521C127.984 60.6431 129.339 62.5662 128.846 64.4892C128.23 66.9033 125.684 67.7626 123.426 67.3943C122.646 67.2716 122.317 68.4582 123.097 68.5809C126.136 69.1128 129.421 67.8035 130.078 64.5301C130.653 61.7069 128.435 59.1291 125.684 58.8018C122.646 58.4336 119.32 60.6431 118.909 63.7527C118.539 66.4532 121.003 68.8673 123.713 68.0081C124.411 67.8035 124.083 66.6169 123.303 66.8624Z" fill="#E8E8E8"></path><path d="M97.1049 93.4993C96.1194 95.5043 97.5155 97.5092 99.5686 98.0411C101.129 98.4503 102.772 98.082 104.373 98.1638C106.098 98.2457 107.822 98.6548 109.383 99.3504C112.832 100.905 115.049 103.729 115.172 107.534C115.296 110.725 114.351 114.04 115.747 117.067C118.704 123.45 126.834 118.581 131.023 122.714C134.513 126.192 133.076 132.534 137.757 135.193C138.455 135.603 139.071 134.539 138.373 134.13C134.184 131.756 135.17 125.578 132.213 122.141C130.653 120.341 128.395 119.85 126.095 119.686C123.303 119.522 119.689 120.095 117.636 117.722C115.255 114.94 116.527 110.766 116.404 107.493C116.322 104.915 115.46 102.583 113.653 100.742C112.052 99.1458 109.957 98.0411 107.781 97.4683C106.672 97.1818 105.523 96.9773 104.373 96.9363C102.895 96.8545 96.489 97.591 98.2136 94.1131C98.5421 93.4175 97.4744 92.8038 97.1049 93.4993Z" fill="#E8E8E8"></path><path d="M1.1008 314.368C8.53311 314.368 15.9244 314.368 23.3567 314.368C24.1369 314.368 24.1369 313.141 23.3567 313.141C15.9244 313.141 8.53311 313.141 1.1008 313.141C0.279551 313.141 0.279551 314.368 1.1008 314.368Z" fill="#E8E8E8"></path><path d="M13.091 342.11C27.3808 342.11 41.6295 342.11 55.9192 342.11C56.6994 342.11 56.6994 340.883 55.9192 340.883C41.6295 340.883 27.3808 340.883 13.091 340.883C12.2698 340.883 12.2698 342.11 13.091 342.11Z" fill="#E8E8E8"></path><path d="M54.1946 334.417C67.4577 334.417 80.762 334.417 94.0252 334.417C94.8054 334.417 94.8054 333.189 94.0252 333.189C80.762 333.189 67.4577 333.189 54.1946 333.189C53.3733 333.189 53.3733 334.417 54.1946 334.417Z" fill="#E8E8E8"></path><path d="M275.07 332.289C281.763 330.652 288.497 330.489 295.314 331.552C298.188 332.003 301.104 332.453 304.019 332.207C306.852 331.962 309.603 331.102 312.355 330.366C315.475 329.507 318.596 328.852 321.881 329.098C325.248 329.343 328.492 330.284 331.777 331.021C334.61 331.675 337.485 332.125 340.4 332.084C343.48 332.003 346.519 331.471 349.516 331.021C357.729 329.711 365.448 330.53 373.579 331.88C374.359 332.003 374.687 330.816 373.907 330.693C367.337 329.629 360.726 328.525 354.033 329.179C347.052 329.875 340.565 331.593 333.502 330.161C327.589 328.975 321.963 327.134 315.886 328.279C312.642 328.893 309.562 330.039 306.318 330.652C302.705 331.348 299.215 330.939 295.601 330.366C288.579 329.302 281.64 329.384 274.7 331.102C274.002 331.307 274.331 332.494 275.07 332.289Z" fill="#E8E8E8"></path><path d="M338.142 319.851C351.036 319.155 363.929 318.459 376.823 317.805C383.187 317.477 389.347 317.6 395.67 318.459C398.504 318.828 401.214 318.91 404.047 318.582C407.209 318.214 410.494 317.723 413.451 319.237C414.149 319.605 414.765 318.541 414.066 318.173C409.057 315.636 403.267 318.009 397.888 317.518C394.685 317.232 391.564 316.618 388.361 316.454C385.035 316.291 381.709 316.373 378.383 316.536C364.956 317.15 351.528 317.968 338.101 318.664C337.362 318.664 337.362 319.892 338.142 319.851Z" fill="#E8E8E8"></path><path d="M85.6485 354.999C91.7257 355.572 97.844 356.145 103.921 355.449C106.755 355.122 109.465 354.508 112.216 353.69C115.788 352.626 118.991 352.339 122.687 352.994C125.52 353.485 128.312 354.181 131.146 354.426C134.143 354.672 137.141 354.508 140.138 354.222C146.421 353.608 152.704 352.544 158.945 353.935C159.725 354.099 160.054 352.912 159.274 352.749C153.278 351.439 147.283 352.299 141.247 352.912C138.25 353.199 135.252 353.485 132.254 353.321C128.846 353.158 125.561 352.258 122.235 351.726C119.443 351.276 116.774 351.276 114.023 351.93C111.066 352.667 108.274 353.649 105.235 354.099C98.7474 355.04 92.1364 354.385 85.6485 353.812C84.8272 353.69 84.8683 354.917 85.6485 354.999Z" fill="#E8E8E8"></path><path d="M150.609 24.8412C149.008 23.7365 146.832 21.9771 147.489 19.7676C148.187 17.4762 149.911 18.581 151.513 18.0491C153.648 17.3535 153.525 14.7757 152.909 13.0981C152.293 11.4615 150.979 7.49256 154.387 8.84281C155.167 9.17014 155.742 9.70206 156.646 9.41564C157.467 9.17014 157.877 8.43364 158.083 7.65623C158.247 6.96064 158.124 6.22414 158.083 5.48764C158.001 4.99664 157.96 4.46473 157.96 3.97373C157.795 2.78714 158.534 2.29614 160.095 2.50072C160.136 3.27814 161.368 3.27814 161.327 2.50072C161.245 1.35506 160.382 0.536724 159.15 0.57764C157.713 0.618557 156.933 2.00972 156.769 3.31906C156.646 4.21922 157.385 6.30598 156.974 7.04248C156.481 7.36981 155.989 7.73806 155.455 8.06539C155.249 7.94264 155.044 7.81989 154.839 7.69714C154.469 7.57439 154.182 7.32889 153.812 7.24706C152.539 6.96064 151.513 7.73806 151.061 8.88373C150.281 10.8477 151.677 12.4844 152.088 14.3256C152.621 16.8625 150.691 16.5761 149.008 16.8625C148.269 16.9852 147.653 17.3535 147.16 17.8854C144.573 20.8723 147.571 24.1866 150.034 25.9051C150.65 26.3551 151.266 25.2913 150.609 24.8412Z" fill="#E8E8E8"></path><path d="M158.699 23.6962C157.344 22.1413 156.317 20.0137 158.945 19.1953C159.602 18.9908 160.341 19.0726 160.957 18.6634C162.312 17.7223 161.737 16.4539 161.491 15.1446C161.368 14.4081 161.08 13.4261 161.532 12.6896C161.861 12.1577 163.051 11.9531 163.667 11.8303C164.53 11.6258 165.433 11.503 166.172 11.012C167.281 10.2346 167.691 8.84342 166.952 7.65684C166.542 7.00217 165.474 7.61592 165.885 8.27059C167.117 10.2346 161.368 10.7665 160.382 12.1986C159.233 13.8762 161.655 16.8222 159.643 17.886C158.863 18.2952 157.878 18.0088 157.138 18.5407C156.605 18.9089 156.235 19.4818 156.071 20.0955C155.619 21.8549 156.81 23.3688 157.878 24.5963C158.37 25.1692 159.233 24.3099 158.699 23.6962Z" fill="#E8E8E8"></path><path d="M110.204 13.9976C109.136 13.2611 109.013 11.9517 109.342 10.8061C109.547 10.0287 110.532 7.901 111.477 7.81916C113.037 7.6555 113.817 9.61949 114.228 10.7652C114.598 11.8699 114.721 12.9747 114.762 14.1203C114.762 14.8977 115.994 14.8977 115.994 14.1203C115.953 11.829 114.433 4.79134 110.656 6.83717C109.218 7.61458 108.151 9.865 107.987 11.4198C107.822 12.8928 108.397 14.2022 109.588 15.0614C110.204 15.5115 110.82 14.4477 110.204 13.9976Z" fill="#E8E8E8"></path><path d="M109.711 14.6522C108.233 15.0204 106.755 15.3887 105.235 15.7569C104.373 15.9615 102.895 16.0434 102.197 16.698C101.006 17.8028 101.335 21.1989 101.335 22.6309C101.335 23.0401 101.745 23.3265 102.115 23.2038C102.32 23.1629 102.525 23.081 102.772 23.0401C103.839 22.4673 104.373 22.8355 104.414 24.063C105.235 24.8814 105.235 25.3724 104.414 25.4542C103.921 25.6588 103.429 25.7406 102.895 25.7406C102.566 25.7815 102.279 25.9861 102.279 26.3544C102.361 28.973 102.566 31.5508 102.854 34.1694C102.936 34.9469 104.168 34.9469 104.086 34.1694C103.798 31.5508 103.593 28.973 103.511 26.3544C103.305 26.5589 103.1 26.7635 102.895 26.9681C104.619 26.7635 107.371 26.0679 107.001 23.7357C106.59 21.2398 103.552 21.5262 101.827 22.0172C102.074 22.2218 102.361 22.4264 102.607 22.59C102.607 21.6489 102.607 20.7488 102.69 19.8077C102.813 18.3347 102.731 17.8028 104.086 17.2709C105.933 16.5344 108.11 16.2889 110.04 15.7979C110.82 15.6751 110.491 14.4885 109.711 14.6522Z" fill="#E8E8E8"></path><path d="M115.624 15.0218C117.349 14.9399 119.115 14.9399 120.839 15.1445C122.482 15.3491 122.4 15.5946 122.646 17.0267C122.81 17.9268 122.851 18.8679 122.933 19.7681C123.262 23.2869 123.508 26.8058 123.714 30.3246C123.755 31.102 124.986 31.102 124.945 30.3246C124.699 25.5373 124.535 20.6273 123.755 15.881C123.549 14.6944 123.344 14.3262 122.112 14.1216C119.977 13.7124 117.759 13.7124 115.624 13.8352C114.844 13.8352 114.844 15.0627 115.624 15.0218Z" fill="#E8E8E8"></path><path d="M103.757 35.0286C106.18 34.6194 108.602 34.2103 110.984 33.8011C113.735 33.351 116.363 33.5556 119.114 33.351C120.387 33.2283 126.424 32.6145 124.206 30.1186C123.672 29.5458 122.81 30.405 123.344 30.9778C123.672 31.3461 118.088 32.1644 117.965 32.1644C116.24 32.2053 114.515 32.1235 112.791 32.3281C109.67 32.6963 106.549 33.351 103.429 33.8829C102.648 33.9648 102.977 35.1513 103.757 35.0286Z" fill="#E8E8E8"></path><path d="M321.881 270.668C321.758 274.964 321.635 279.261 321.511 283.598C326.973 283.966 332.393 284.293 337.854 284.662C337.854 280.243 337.854 275.824 337.854 271.404C332.516 271.159 327.219 270.913 321.881 270.668Z" fill="white" stroke="#161616" stroke-width="2" stroke-miterlimit="10"></path><path d="M328.985 318.418C329.724 323.164 330.053 327.092 330.217 329.915C330.751 339.285 330.34 341.454 329.519 343.172C327.507 347.387 323.852 349.146 324.181 349.719C324.427 350.087 326.234 349.678 334.282 345.464C333.789 336.135 333.338 326.847 332.845 317.518C331.572 317.845 330.299 318.131 328.985 318.418Z" fill="white" stroke="#161616" stroke-width="2" stroke-miterlimit="10"></path><path d="M318.35 288.344C325.33 288.385 332.311 288.467 339.292 288.507C338.511 297.836 337.772 307.124 336.992 316.453C330.915 315.962 324.797 315.512 318.719 315.021C318.555 306.142 318.432 297.264 318.35 288.344Z" fill="white" stroke="#161616" stroke-width="2" stroke-miterlimit="10"></path><path d="M321.183 318.089C323.4 323.449 324.14 328.073 324.386 331.183C324.756 335.765 325.002 339.284 322.785 341.616C321.963 342.517 320.608 343.376 317.98 345.135C315.64 346.69 314.531 347.263 314.613 347.427C314.736 347.672 316.995 347.181 326.85 343.703C327.507 340.389 328.041 336.134 327.917 331.142C327.753 325.823 326.891 321.281 325.946 317.885C324.386 317.967 322.785 318.008 321.183 318.089Z" fill="white" stroke="#161616" stroke-width="2" stroke-miterlimit="10"></path><path d="M324.755 350.087C325.987 349.064 327.137 347.959 328.246 346.773C329.519 345.381 331.408 343.254 333.379 345.095C333.42 344.768 333.461 344.44 333.502 344.113C330.586 345.545 327.712 346.977 324.797 348.368C324.222 348.655 324.509 349.514 325.125 349.514C327.876 349.555 329.601 344.768 332.434 345.668C333.173 345.913 333.502 344.727 332.763 344.481C331.531 344.113 330.586 344.44 329.56 345.177C328.369 346.036 326.685 348.287 325.166 348.287C325.289 348.655 325.371 349.064 325.495 349.432C328.41 348 331.284 346.568 334.2 345.177C334.57 345.013 334.611 344.481 334.323 344.195C333.214 343.172 331.243 342.804 329.847 343.458C328.821 343.908 328.164 345.095 327.425 345.872C326.316 347.059 325.166 348.123 323.934 349.187C323.277 349.719 324.14 350.619 324.755 350.087Z" fill="#161616"></path><path d="M329.806 343.704C331.038 343.745 332.229 343.99 333.379 344.481C334.077 344.809 334.734 343.745 333.994 343.418C332.639 342.804 331.284 342.476 329.806 342.436C329.026 342.476 329.026 343.704 329.806 343.704Z" fill="#161616"></path><path d="M323.072 342.273C324.016 342.518 324.838 343.009 325.495 343.746C326.028 344.319 326.891 343.459 326.357 342.886C325.536 342.027 324.509 341.413 323.359 341.127C322.661 340.882 322.333 342.068 323.072 342.273Z" fill="#161616"></path><path d="M316.42 347.223C317.693 346.282 319.007 345.423 320.362 344.604C320.978 344.236 321.635 343.745 322.292 343.54C323.318 343.172 323.934 343.418 324.879 343.827C324.879 343.459 324.879 343.131 324.879 342.763C323.565 343.336 322.086 343.295 320.731 343.868C319.417 344.4 318.185 345.709 316.83 345.955C316.995 346.323 317.159 346.691 317.323 347.059C319.746 345.873 322.456 345.668 324.879 344.482C325.577 344.113 324.961 343.09 324.263 343.418C321.84 344.604 319.13 344.809 316.707 345.995C316.05 346.323 316.543 347.223 317.2 347.1C318.678 346.855 319.869 345.504 321.265 344.973C322.661 344.441 324.181 344.4 325.536 343.827C325.946 343.663 325.946 342.927 325.536 342.763C323.975 342.067 323.277 341.658 321.717 342.477C319.664 343.54 317.734 344.809 315.886 346.159C315.147 346.609 315.763 347.673 316.42 347.223Z" fill="#161616"></path><path d="M323.441 324.35C324.468 323.982 325.495 324.023 326.439 324.514C327.137 324.882 327.753 323.818 327.055 323.45C325.823 322.795 324.427 322.672 323.113 323.163C322.374 323.45 322.702 324.636 323.441 324.35Z" fill="#161616"></path><path d="M324.468 328.443C325.33 328.361 326.152 328.566 326.809 329.139C327.425 329.63 328.287 328.77 327.671 328.279C326.768 327.543 325.659 327.134 324.468 327.215C323.688 327.256 323.688 328.484 324.468 328.443Z" fill="#161616"></path><path d="M324.92 333.558C325.7 333.477 326.439 333.763 326.891 334.418C327.301 335.072 328.369 334.459 327.958 333.804C327.342 332.781 326.151 332.167 324.961 332.331C324.632 332.372 324.345 332.576 324.345 332.945C324.304 333.231 324.591 333.599 324.92 333.558Z" fill="#161616"></path><path d="M330.217 324.064C330.956 323.654 331.9 323.695 332.598 324.268C333.214 324.759 334.077 323.9 333.461 323.409C332.352 322.509 330.874 322.304 329.601 323C328.903 323.409 329.519 324.473 330.217 324.064Z" fill="#161616"></path><path d="M330.915 331.797C331.572 331.511 332.311 331.633 332.845 332.124C333.42 332.656 334.323 331.797 333.707 331.265C332.763 330.406 331.449 330.201 330.258 330.774C329.56 331.061 330.217 332.124 330.915 331.797Z" fill="#161616"></path><path d="M331.079 338.344C331.736 337.935 332.557 337.935 333.173 338.426C333.789 338.917 334.651 338.058 334.035 337.567C333.009 336.708 331.572 336.585 330.463 337.321C329.806 337.731 330.422 338.794 331.079 338.344Z" fill="#161616"></path><path d="M340.277 288.467C339.456 297.878 338.635 307.288 337.813 316.699" stroke="#161616" stroke-width="6" stroke-miterlimit="10"></path><path d="M318.596 315.389C325.454 315.88 332.311 316.33 339.169 316.821" stroke="#161616" stroke-width="6" stroke-miterlimit="10"></path><path d="M339.21 271.035C339.045 275.7 338.84 280.323 338.676 284.988" stroke="#161616" stroke-width="6" stroke-miterlimit="10"></path><path d="M340.072 293.991C343.891 293.296 347.956 296.283 348.243 300.211C348.654 305.121 343.028 305.98 339.333 305.448C338.553 305.325 338.224 306.512 339.004 306.634C343.521 307.289 349.886 306.021 349.475 300.211C349.147 295.423 344.342 291.945 339.743 292.805C338.963 292.927 339.292 294.114 340.072 293.991Z" fill="#161616"></path><path d="M339.168 307.616C340.77 307.943 342.043 309.089 342.494 310.644C342.7 311.421 343.891 311.094 343.685 310.316C343.151 308.352 341.55 306.797 339.538 306.429C338.717 306.306 338.388 307.452 339.168 307.616Z" fill="#161616"></path><path d="M338.552 307.208C339.538 308.64 339.99 310.236 339.825 311.995C339.784 312.773 341.016 312.773 341.057 311.995C341.18 310.072 340.688 308.19 339.579 306.594C339.168 305.94 338.101 306.553 338.552 307.208Z" fill="#161616"></path><path d="M318.309 293.418C315.599 291.699 310.63 296.65 310.014 299.064C308.782 303.974 315.106 303.401 317.734 305.038C318.391 305.447 319.007 304.383 318.35 303.974C316.461 302.787 313.669 303.237 312.026 301.764C310.014 299.964 311.862 297.796 313.258 296.527C313.997 295.872 316.502 293.704 317.693 294.44C318.35 294.931 319.007 293.868 318.309 293.418Z" fill="#161616"></path><path d="M317.652 304.464C316.584 304.873 315.599 305.487 314.777 306.346C314.161 307.001 313.381 308.024 313.997 308.924C314.449 309.579 315.517 308.965 315.065 308.31C314.777 307.901 315.845 307.001 316.132 306.755C316.666 306.264 317.282 305.896 317.98 305.651C318.719 305.364 318.432 304.178 317.652 304.464Z" fill="#161616"></path><path d="M317.159 305.325C316.379 306.552 316.132 307.943 316.42 309.335C316.584 310.112 317.775 309.785 317.611 309.007C317.364 307.903 317.611 306.88 318.227 305.939C318.678 305.284 317.611 304.67 317.159 305.325Z" fill="#161616"></path><path d="M321.06 292.64C320.854 295.627 320.896 298.654 321.101 301.641C321.183 302.419 322.415 302.419 322.333 301.641C322.086 298.654 322.086 295.627 322.292 292.64C322.374 291.862 321.142 291.862 321.06 292.64Z" fill="#161616"></path><path d="M321.963 292.967C326.316 293.212 330.627 293.376 334.98 293.458C334.775 293.253 334.569 293.049 334.364 292.844C334.241 295.913 334.118 299.023 333.954 302.091C333.912 302.869 335.144 302.869 335.185 302.091C335.309 299.023 335.432 295.913 335.596 292.844C335.596 292.517 335.309 292.23 334.98 292.23C330.627 292.148 326.316 291.985 321.963 291.739C321.183 291.698 321.183 292.926 321.963 292.967Z" fill="#161616"></path><path d="M321.47 302.173C323.277 302.664 325.289 302.541 327.096 302.664C329.313 302.787 331.572 302.95 333.789 303.073C334.569 303.114 334.569 301.887 333.789 301.846C331.818 301.723 329.847 301.6 327.876 301.478C325.905 301.355 323.688 301.477 321.758 300.987C321.06 300.782 320.731 301.968 321.47 302.173Z" fill="#161616"></path><path d="M322.867 308.516C323.606 310.111 325.207 308.72 326.439 309.293C327.014 309.539 326.891 309.907 327.671 309.948C328.574 309.989 330.792 308.188 331.243 309.866C331.367 310.316 331.941 310.439 332.27 310.152C332.681 310.03 333.132 309.907 333.543 309.825C334.036 310.439 334.939 309.539 334.405 308.966C333.461 307.861 332.27 308.475 331.367 309.293C331.695 309.375 332.065 309.457 332.393 309.579C332.024 308.147 330.504 307.206 329.067 307.861C328.369 308.188 328.287 308.802 327.219 308.393C327.014 308.311 326.932 307.984 326.726 307.902C326.275 307.738 323.893 307.984 323.893 307.943C323.606 307.165 322.538 307.779 322.867 308.516Z" fill="#161616"></path><path d="M325.043 276.315C325.125 275.865 325.659 275.742 326.028 275.905C326.562 276.11 326.85 276.724 327.096 277.174C327.424 277.869 328.492 277.256 328.164 276.56C327.712 275.66 327.014 274.719 325.905 274.596C325.002 274.514 324.057 275.046 323.893 275.946C323.688 276.765 324.879 277.092 325.043 276.315Z" fill="#161616"></path><path d="M332.598 276.887C332.681 276.478 333.05 276.232 333.461 276.396C333.953 276.56 334.159 277.174 334.241 277.624C334.364 278.401 335.555 278.074 335.432 277.296C335.267 276.314 334.61 275.291 333.543 275.128C332.598 275.005 331.572 275.578 331.408 276.56C331.284 277.337 332.475 277.665 332.598 276.887Z" fill="#161616"></path><path d="M325.659 278.892C327.055 281.347 330.381 281.716 332.188 279.506C332.681 278.892 331.818 278.033 331.326 278.647C330.012 280.243 327.753 280.12 326.727 278.279C326.357 277.583 325.289 278.197 325.659 278.892Z" fill="#161616"></path><path d="M218.937 342.477C211.135 352.01 203.375 361.503 195.573 371.036C204.73 403.115 209.904 411.544 212.983 411.094C215.201 410.766 216.268 405.979 217.459 400.619C220.416 387.239 218.65 375.742 216.843 368.581C221.771 363.099 226.657 357.575 231.585 352.092C227.355 348.9 223.167 345.709 218.937 342.477Z" fill="#161616" stroke="#161616" stroke-width="2" stroke-miterlimit="10"></path><path d="M190.153 293.376C195.039 297.141 199.72 295.79 209.411 297.427C217.664 298.818 226.945 301.887 236.8 308.024C226.288 320.299 215.776 333.27 205.346 346.936C202.841 350.25 200.336 353.565 197.913 356.879C201.938 357.82 206.783 359.293 212.039 361.666C217.172 363.958 221.36 366.535 224.686 368.868C240.331 355.283 254.292 342.149 266.734 329.751C272.483 324.023 280.613 315.267 281.886 302.869C281.968 302.173 281.968 301.56 281.968 300.946C281.681 280.365 255.688 265.471 239.879 259.988C222.592 254.014 192.863 250.782 184.568 265.062C179.682 273.491 182.556 287.525 190.153 293.376Z" fill="#D51482"></path><path opacity="0.26" d="M220.498 272.795C220.21 276.682 219.512 281.306 218.075 286.42C217.048 290.062 215.817 293.294 214.585 296.036C213.23 296.567 211.916 297.099 210.561 297.631C219.389 301.109 228.259 304.587 237.087 308.065C230.517 315.553 223.906 323.409 217.254 331.592C210.396 340.021 203.867 348.286 197.667 356.429C202.061 357.861 206.413 359.293 210.807 360.684C226.534 343.417 242.261 326.109 257.988 308.843C259.63 304.137 259.548 300.455 259.055 297.877C256.797 285.274 241.316 275.004 220.498 272.795Z" fill="#6D6C6C"></path><path opacity="0.23" d="M237.005 307.982C238.442 310.151 239.838 312.36 241.276 314.529C229.039 329.218 216.802 343.866 204.566 358.555C202.389 357.982 200.172 357.369 197.996 356.796C205.839 346.076 214.297 335.069 223.454 323.981C228.012 318.457 232.529 313.138 237.005 307.982Z" fill="#6D6C6C"></path><path d="M196.148 326.93C208.261 329.139 220.416 331.308 232.529 333.517C246.531 363.959 248.092 373.779 245.464 375.457C243.575 376.643 239.633 373.697 235.239 370.383C224.234 362.077 218.116 352.175 214.79 345.506C207.481 344.524 200.172 343.501 192.863 342.519C193.93 337.323 195.039 332.126 196.148 326.93Z" fill="#161616" stroke="#161616" stroke-width="2" stroke-miterlimit="10"></path><path d="M171.182 259.13C149.09 265.595 135.621 279.015 126.957 287.853C115.254 299.842 100.883 314.531 105.03 325.374C107.165 330.898 113.653 334.294 143.875 339.531C166.706 343.5 186.498 345.628 201.937 346.814C203.867 339.776 205.797 332.78 207.686 325.742C192.165 320.75 176.684 315.799 161.162 310.807C170.689 308.803 180.708 306.429 191.138 303.524C199.063 301.315 206.619 299.023 213.804 296.609C220.457 283.23 221.894 268.786 214.954 260.603C205.263 249.146 183.541 255.488 171.182 259.13Z" fill="#D51482"></path><path opacity="0.29" d="M220.333 273.287C220.128 277.338 219.43 282.534 217.541 288.263C216.391 291.741 215.077 294.768 213.763 297.264C212.655 297.346 211.546 297.469 210.437 297.551C201.075 300.619 191.097 303.525 180.544 306.225C173.727 307.984 167.075 309.498 160.628 310.89C176.191 315.759 191.754 320.587 207.316 325.456C206.988 327.133 206.577 328.893 206.085 330.734C205.51 332.862 204.853 334.826 204.237 336.626C182.761 331.348 161.285 326.07 139.81 320.791C138.824 319.605 135.58 315.309 136.073 309.621C136.607 303.443 142.52 299.065 150.075 295.055C171.921 283.516 208.548 275.701 220.333 273.287Z" fill="#6D6C6C"></path><path opacity="0.24" d="M149.583 311.748C153.484 311.461 157.426 311.175 161.327 310.848C176.643 315.921 191.959 321.036 207.276 326.11C206.619 328.524 205.962 330.979 205.305 333.393C186.744 326.151 168.143 318.949 149.583 311.748Z" fill="#6D6C6C"></path><path d="M165.392 166.414C171.469 162.855 182.022 157.781 196.066 156.308C217.582 154.057 234.089 161.75 240.618 165.228C239.428 181.308 237.58 194.156 236.101 202.994C234.336 213.55 232.899 219.401 232.242 229.099C231.42 241.251 232.447 251.234 233.391 257.781C226.246 259.991 215.447 262.405 202.143 262.118C189.331 261.832 178.984 259.05 172.044 256.635C173.892 241.987 173.276 230.367 172.372 222.47C171.346 213.673 169.95 209.377 168.266 198.738C166.09 184.99 165.515 173.738 165.392 166.414Z" fill="white" stroke="#161616" stroke-width="2" stroke-miterlimit="10"></path><path opacity="0.14" d="M209.822 161.177C210.684 164.286 211.669 168.583 212.326 173.738C212.778 177.216 214.626 192.969 208.877 213.755C205.346 226.562 201.609 240.105 189.372 251.234C185.43 254.835 181.612 257.249 178.819 258.763C185.02 260.359 193.109 261.873 202.677 261.954C215.201 262.077 225.548 259.827 232.734 257.617C232.324 254.549 231.79 249.925 231.585 244.36C231.42 239.491 231.42 231.717 234.788 209.827C237.457 192.601 239.345 185.195 240.29 169.606C240.413 167.805 240.454 166.291 240.536 165.268C237.539 163.509 233.638 161.586 228.833 160.031C224.399 158.599 220.416 157.862 217.131 157.535C214.749 158.722 212.285 159.949 209.822 161.177Z" fill="#6D6C6C"></path><path opacity="0.17" d="M239.345 171.938C237.046 184.908 234.007 195.383 231.626 202.666C224.645 223.943 219.759 238.263 206.578 248.738C198.406 255.244 189.906 257.985 184.445 259.295C189.988 260.849 197.831 262.363 207.317 262.159C218.239 261.913 227.068 259.458 232.858 257.371C232.077 252.38 231.174 244.892 231.42 235.767C231.708 223.943 233.638 216.823 235.773 203.852C236.964 196.242 238.483 185.358 239.345 171.938Z" fill="#6D6C6C"></path><path d="M165.145 166.209C159.807 169.891 152.95 175.702 146.955 184.335C133.445 203.893 133.815 224.638 134.349 232.289C136.812 238.877 141.042 247.51 148.433 255.98C152.745 260.931 159.068 268.051 169.868 272.633C173.481 274.188 176.643 275.047 178.942 275.538C180.913 273.779 182.843 272.02 184.814 270.26C178.491 262.895 172.126 255.162 165.761 247.183C160.875 241.087 156.194 235.031 151.677 229.057C151.841 224.024 152.909 214.9 158.411 205.366C161.532 199.965 165.186 196.037 168.102 193.378C167.116 184.335 166.131 175.292 165.145 166.209Z" fill="white" stroke="#161616" stroke-width="2" stroke-miterlimit="10"></path><path opacity="0.13" d="M165.926 175.334C154.1 188.632 148.474 201.234 145.682 209.172C140.795 222.92 141.822 230.121 142.561 233.558C143.177 236.259 144.532 240.883 149.501 247.92C153.812 254.017 162.887 264.942 180.174 273.943C181.694 272.47 183.213 271.038 184.732 269.565C179.846 264.082 174.918 258.313 169.95 252.298C163.421 244.401 157.344 236.627 151.718 229.017C151.882 224.884 152.58 219.115 155.003 212.65C158.658 202.953 164.406 196.57 167.979 193.174C167.24 187.241 166.583 181.308 165.926 175.334Z" fill="#6D6C6C"></path><path opacity="0.16" d="M151.677 229.549C152.416 234.336 153.935 240.433 157.138 247.02C164.201 261.341 175.247 269.238 180.872 272.675C181.981 271.693 183.049 270.752 184.157 269.77C173.317 256.349 162.517 242.929 151.677 229.549Z" fill="#6D6C6C"></path><path d="M241.234 165.473C247.229 169.114 254.949 174.802 261.642 183.271C276.835 202.461 276.384 222.838 275.809 230.367C273.017 236.831 268.294 245.301 260 253.648C255.154 258.476 248.051 265.473 235.937 270.015C231.872 271.529 228.3 272.388 225.713 272.879C223.536 271.16 221.319 269.442 219.143 267.723C226.205 260.481 233.391 252.912 240.536 245.056C245.997 239.041 251.253 233.108 256.345 227.257C256.14 222.347 254.99 213.386 248.79 203.975C245.258 198.656 241.193 194.81 237.908 192.191C239.058 183.271 240.167 174.392 241.234 165.473Z" fill="white" stroke="#161616" stroke-width="2" stroke-miterlimit="10"></path><path opacity="0.16" d="M240.947 175.416C246.162 180.858 253.265 189.573 258.809 201.725C261.437 207.495 265.707 216.865 265.79 225.703C266.077 252.585 227.889 271.079 225.671 272.143C223.495 270.752 221.36 269.402 219.184 268.01C231.543 254.508 243.862 241.005 256.222 227.503C255.976 223.084 254.949 214.86 250.022 206.104C245.956 198.902 240.906 194.238 237.58 191.66C238.729 186.259 239.838 180.858 240.947 175.416Z" fill="#6D6C6C"></path><path opacity="0.12" d="M256.633 227.625C256.017 231.185 254.99 235.072 253.389 239.082C246.162 257.249 231.543 267.191 224.152 271.447C222.387 270.301 220.662 269.155 218.896 268.01C231.461 254.548 244.027 241.087 256.633 227.625Z" fill="#6D6C6C"></path><path d="M250.679 230.652H149.706V294.36H250.679V230.652Z" fill="white" stroke="#161616" stroke-width="2" stroke-miterlimit="10"></path><path d="M198.735 268.583C193.396 269.238 190.81 262.773 192.206 258.477C193.561 254.222 198.611 252.217 202.718 253.69C206.783 255.163 208.754 260.114 207.317 264.083C205.715 268.502 200.131 270.302 196.024 268.338C195.326 268.011 194.669 269.074 195.409 269.402C199.063 271.161 203.539 270.507 206.454 267.642C209.288 264.819 209.698 260.359 207.933 256.881C203.908 248.943 191.467 251.48 190.604 260.195C190.153 264.86 193.52 270.466 198.735 269.852C199.515 269.729 199.515 268.502 198.735 268.583Z" fill="#161616"></path><path opacity="0.14" d="M187.607 230.49C201.28 235.236 210.602 247.388 210.889 260.441C211.259 276.808 197.462 292.192 178.655 293.747C202.594 293.952 226.534 294.156 250.514 294.361C250.432 273.002 250.391 251.644 250.309 230.326C229.408 230.326 208.507 230.408 187.607 230.49Z" fill="#6D6C6C"></path><path opacity="0.26" d="M250.514 230.285C250.145 243.297 247.558 253.444 245.382 260.113C242.179 269.811 239.879 276.889 233.268 283.15C224.275 291.742 213.065 293.338 208.138 293.747C222.14 293.87 236.143 293.992 250.145 294.156C250.186 282.004 250.268 269.852 250.35 257.658C250.35 248.534 250.432 239.41 250.514 230.285Z" fill="#6D6C6C"></path><path d="M197.215 133.394C194.957 136.135 197.133 139.491 196.722 148.451C196.517 152.911 195.778 156.512 195.203 158.926C197.133 159.826 200.541 161.095 204.935 161.217C210.355 161.34 214.461 159.662 216.474 158.68C215.57 156.88 214.379 154.098 213.64 150.497C211.792 141.332 215.077 137.036 212.367 133.64C209.205 129.712 200.254 129.671 197.215 133.394Z" fill="white" stroke="#161616" stroke-width="2" stroke-miterlimit="10"></path><path d="M182.885 94.0315C180.298 100.66 181.283 106.634 181.858 109.212C181.612 109.253 176.807 110.275 175.493 113.958C174.179 117.681 176.889 122.96 182.556 124.678C184.609 129.67 189.578 139.326 200.049 144.605C201.814 145.464 203.498 146.159 205.182 146.65C206.701 146.078 208.754 145.177 211.095 143.827C218.404 139.613 222.469 134.375 223.413 133.107C225.138 130.816 227.478 127.133 229.121 122.059C230.024 122.223 231.626 122.305 233.186 121.528C236.718 119.727 238.483 114.122 236.019 110.48C233.966 107.452 229.983 107.329 229.491 107.329C230.024 105.202 231.667 97.5504 227.52 89.9808C222.756 81.2655 212.532 76.6828 202.923 77.9922C188.715 79.8334 183.131 93.3768 182.885 94.0315Z" fill="white" stroke="#161616" stroke-width="2" stroke-miterlimit="10"></path><path d="M196.681 144.236C199.186 145.709 201.937 148 205.017 147.755C207.563 147.55 210.396 146.077 212.326 144.522C212.942 144.031 212.08 143.172 211.464 143.663C209.657 145.095 206.742 146.609 204.36 146.568C201.855 146.527 199.309 144.441 197.256 143.172C196.64 142.763 196.024 143.827 196.681 144.236Z" fill="#161616"></path><path d="M196.517 144.768C198.858 146.773 201.527 149.023 204.812 148.859C208.015 148.696 211.012 146.568 213.107 144.277C213.64 143.704 212.778 142.845 212.244 143.417C210.437 145.381 207.892 147.305 205.099 147.591C202.02 147.877 199.556 145.791 197.38 143.908C196.805 143.377 195.942 144.236 196.517 144.768Z" fill="#161616"></path><path d="M198.078 145.014C198.078 144.973 198.078 144.973 198.078 145.014C197.831 144.645 197.38 144.564 197.092 144.85C197.092 144.85 197.092 144.85 197.051 144.891C196.805 145.095 196.805 145.546 197.051 145.75C201.568 150.046 209.862 151.438 213.106 144.85C213.435 144.154 212.408 143.5 212.039 144.236C209.164 150.128 201.896 148.696 197.954 144.891C197.954 145.177 197.954 145.464 197.954 145.75C197.954 145.75 197.954 145.75 197.995 145.709C197.667 145.668 197.338 145.627 197.01 145.586V145.627C197.421 146.282 198.488 145.668 198.078 145.014Z" fill="#161616"></path><path d="M203.005 107.166C202.471 113.794 202.759 120.382 203.826 126.929C203.867 127.256 204.278 127.461 204.565 127.338C206.167 126.806 207.317 125.865 208.179 124.433C208.59 123.737 207.522 123.123 207.111 123.819C206.413 125.006 205.551 125.701 204.237 126.151C204.483 126.274 204.73 126.438 204.976 126.56C203.908 120.136 203.662 113.631 204.196 107.125C204.319 106.348 203.087 106.348 203.005 107.166Z" fill="#161616"></path><path d="M195.696 113.672C195.778 114.04 196.394 116.331 195.696 116.699C194.998 117.068 193.027 115.595 192.411 113.672C191.918 112.035 192.329 109.989 193.109 109.826C193.93 109.621 195.203 111.871 195.696 113.672Z" fill="#161616" stroke="#161616" stroke-miterlimit="10"></path><path d="M216.884 113.672C216.966 114.04 217.582 116.331 216.884 116.699C216.186 117.068 214.215 115.595 213.599 113.672C213.106 112.035 213.517 109.989 214.297 109.826C215.119 109.621 216.391 111.871 216.884 113.672Z" fill="#161616" stroke="#161616" stroke-miterlimit="10"></path><path d="M201.527 132.329C206.537 134.457 211.094 131.47 214.79 128.238C215.406 127.706 214.503 126.846 213.928 127.378C210.725 130.161 206.619 133.148 202.184 131.265C201.404 130.979 200.788 132.043 201.527 132.329Z" fill="#161616"></path><path d="M215.981 120.177C216.761 120.177 216.761 118.949 215.981 118.949C215.201 118.949 215.201 120.177 215.981 120.177Z" fill="#161616"></path><path d="M220.539 117.887C220.58 117.846 220.621 117.805 220.662 117.764C220.908 117.519 220.908 117.15 220.662 116.905C220.416 116.659 220.046 116.659 219.8 116.905C219.759 116.946 219.718 116.987 219.676 117.028C219.43 117.273 219.43 117.641 219.676 117.887C219.923 118.132 220.292 118.132 220.539 117.887Z" fill="#161616"></path><path d="M219.184 120.874C219.225 120.874 219.266 120.874 219.307 120.874C219.635 120.874 219.923 120.588 219.923 120.26C219.923 119.933 219.635 119.646 219.307 119.646C219.266 119.646 219.225 119.646 219.184 119.646C218.855 119.646 218.568 119.933 218.568 120.26C218.568 120.588 218.814 120.874 219.184 120.874Z" fill="#161616"></path><path d="M190.851 106.349C192.411 105.039 194.711 104.999 196.271 106.267C196.887 106.758 197.749 105.899 197.133 105.408C194.998 103.689 192.041 103.689 189.947 105.49C189.372 105.981 190.276 106.84 190.851 106.349Z" fill="#161616"></path><path d="M210.889 105.897C212.655 104.343 215.16 104.056 217.254 105.161C217.952 105.529 218.568 104.465 217.87 104.097C215.283 102.706 212.203 103.074 210.027 105.038C209.411 105.57 210.273 106.429 210.889 105.897Z" fill="#161616"></path><path d="M191.179 120.056C191.959 120.056 191.959 118.828 191.179 118.828C190.399 118.828 190.399 120.056 191.179 120.056Z" fill="#161616"></path><path d="M195.532 119.481C196.312 119.481 196.312 118.254 195.532 118.254C194.751 118.254 194.751 119.481 195.532 119.481Z" fill="#161616"></path><path d="M193.355 120.422C193.314 120.463 193.273 120.504 193.232 120.545C192.986 120.791 192.986 121.159 193.232 121.404C193.479 121.65 193.848 121.65 194.094 121.404C194.136 121.363 194.177 121.323 194.218 121.282C194.464 121.036 194.464 120.668 194.218 120.422C193.971 120.177 193.602 120.177 193.355 120.422Z" fill="#161616"></path><path d="M189.578 80.7339C187.114 82.2478 181.735 85.562 178.08 92.3542C174.426 99.1054 174.467 105.488 174.631 108.23C168.636 118.991 165.926 128.484 164.612 134.948C162.476 145.219 163.626 148.983 165.104 151.479C168.718 157.616 175.986 159.13 177.752 159.498C186.826 161.422 194.053 156.798 195.696 155.734C196.148 154.384 196.599 152.706 196.846 150.824C197.297 147.592 197.051 144.809 196.681 142.804C194.628 141.127 192.247 138.876 189.947 135.93C186.457 131.43 184.486 127.011 183.377 123.819C179.764 123.451 177.054 120.996 176.807 118.254C176.561 115.677 178.368 112.362 180.749 112.362C182.515 112.362 183.788 114.163 184.034 114.49C185.389 113.713 187.278 112.362 188.962 110.235C191.384 107.166 191.795 104.425 192.904 101.56C193.971 98.7781 196.024 94.9319 200.459 90.9221C204.73 92.436 208.138 93.909 210.478 95.0138C217.993 98.4917 222.263 100.538 225.589 104.997C227.437 107.452 228.382 109.867 228.874 111.38C232.693 108.475 234.254 109.253 234.582 109.416C237.005 110.767 236.923 118.173 233.145 120.218C231.708 120.996 230.065 120.791 229.039 120.546C227.848 124.678 225.22 131.43 219.184 137.403C217.172 139.408 215.119 140.963 213.271 142.15C213.106 143.664 213.024 145.75 213.435 148.205C213.805 150.456 214.462 152.297 215.077 153.606C225.056 160.153 237.457 158.967 244.191 151.929C250.186 145.628 250.186 136.094 247.927 129.588C245.874 123.655 241.891 120.096 239.92 118.541C240.454 116.25 243.411 102.665 234.829 90.1856C232.611 86.9532 226.411 79.1381 215.242 76.4376C203.416 73.5734 193.684 78.2379 189.578 80.7339Z" fill="#192C85"></path><path opacity="0.17" d="M215.611 97.5508C220.251 103.361 221.483 108.721 221.894 111.503C223.577 123.206 216.761 132.698 213.312 137.567C210.478 141.536 207.563 144.359 205.469 146.201C207.276 151.029 209.041 155.816 210.848 160.644C212.696 160.031 214.544 159.417 216.391 158.803C215.529 157.289 214.626 155.407 213.928 153.116C212.655 149.024 212.573 145.423 212.696 142.968C214.954 141.373 217.582 139.204 220.128 136.34C225.22 130.611 227.766 124.719 229.08 120.751C229.901 120.914 231.667 121.119 233.35 120.178C236.882 118.173 236.307 113.181 236.266 112.854C236.142 111.79 235.896 110.071 234.664 109.376C233.227 108.598 230.845 109.335 228.957 111.544C228.382 109.539 226.739 104.916 222.304 101.233C219.841 99.1874 217.336 98.1236 215.611 97.5508Z" fill="#6D6C6C"></path><path opacity="0.19" d="M203.58 107.534C203.334 107.493 202.512 111.052 200.008 126.764C201.445 126.764 202.882 126.764 204.319 126.764C204.032 124.678 203.703 121.65 203.539 117.967C203.334 111.666 203.826 107.574 203.58 107.534Z" fill="#6D6C6C"></path><path opacity="0.54" d="M239.674 118.951C238.976 119.36 241.604 122.879 241.234 128.116C241.111 129.753 240.865 133.476 237.908 135.972C237.703 136.136 233.309 139.736 228.957 137.445C226.37 136.095 224.809 133.231 224.891 130.121C223.659 132.412 221.647 135.44 218.486 138.386C216.515 140.227 214.585 141.578 212.901 142.601C212.778 144.401 212.778 146.856 213.435 149.638C213.804 151.152 214.256 152.461 214.708 153.525C215.981 154.344 217.87 155.448 220.333 156.308C221.894 156.84 230.476 159.826 238.853 155.694C240.331 154.957 243.616 153.28 245.998 149.679C246.285 149.229 247.353 147.633 248.133 144.933C250.925 135.686 246.819 127.339 246.449 126.643C244.191 122.101 240.536 118.46 239.674 118.951Z" fill="#192C85"></path><path opacity="0.35" d="M183.336 123.983C182.967 124.024 183.788 127.379 182.884 130.694C182.227 133.149 180.133 137.158 176.561 137.977C172.824 138.795 168.184 136.054 166.049 130.939C165.063 133.19 163.749 136.79 163.544 141.373C163.421 144.36 163.257 147.551 164.735 150.702C168.061 157.74 177.834 160.481 185.102 159.826C189.947 159.376 193.602 157.494 195.573 156.226C196.066 154.834 196.558 153.157 196.887 151.234C197.421 147.92 197.297 145.014 197.01 142.887C193.766 140.555 191.549 138.14 190.153 136.381C188.182 133.885 185.512 130.53 184.157 125.865C183.952 125.334 183.583 123.942 183.336 123.983Z" fill="#192C85"></path></svg> 